<mxfile host="app.diagrams.net" agent="Mozilla/5.0 (Macintosh; Intel Mac OS X 10_15_7) AppleWebKit/537.36 (KHTML, like Gecko) Chrome/128.0.0.0 Safari/537.36" version="24.7.8">
  <diagram name="PÃ¡gina-1" id="2dZz5TgDsE-4HHJfdEe0">
    <mxGraphModel dx="601" dy="739" grid="1" gridSize="10" guides="1" tooltips="1" connect="1" arrows="1" fold="1" page="1" pageScale="1" pageWidth="827" pageHeight="1169" math="0" shadow="0">
      <root>
        <mxCell id="0" />
        <mxCell id="1" parent="0" />
        <mxCell id="hyhj-3s_qtI0DntbfZ-J-21" value="" style="group" vertex="1" connectable="0" parent="1">
          <mxGeometry x="140" y="30" width="500" height="500" as="geometry" />
        </mxCell>
        <mxCell id="hyhj-3s_qtI0DntbfZ-J-7" value="" style="rounded=0;whiteSpace=wrap;html=1;fontFamily=Architects Daughter;fontSource=https%3A%2F%2Ffonts.googleapis.com%2Fcss%3Ffamily%3DArchitects%2BDaughter;direction=west;" vertex="1" parent="hyhj-3s_qtI0DntbfZ-J-21">
          <mxGeometry x="150" y="210" width="160" height="80" as="geometry" />
        </mxCell>
        <mxCell id="hyhj-3s_qtI0DntbfZ-J-12" value="" style="rounded=0;whiteSpace=wrap;html=1;fontFamily=Architects Daughter;fontSource=https%3A%2F%2Ffonts.googleapis.com%2Fcss%3Ffamily%3DArchitects%2BDaughter;" vertex="1" parent="hyhj-3s_qtI0DntbfZ-J-21">
          <mxGeometry width="500" height="500" as="geometry" />
        </mxCell>
        <mxCell id="hyhj-3s_qtI0DntbfZ-J-15" value="" style="rounded=0;whiteSpace=wrap;html=1;fontFamily=Architects Daughter;fontSource=https%3A%2F%2Ffonts.googleapis.com%2Fcss%3Ffamily%3DArchitects%2BDaughter;" vertex="1" parent="hyhj-3s_qtI0DntbfZ-J-21">
          <mxGeometry width="500" height="20" as="geometry" />
        </mxCell>
        <mxCell id="hyhj-3s_qtI0DntbfZ-J-16" value="" style="ellipse;whiteSpace=wrap;html=1;fontFamily=Architects Daughter;fontSource=https%3A%2F%2Ffonts.googleapis.com%2Fcss%3Ffamily%3DArchitects%2BDaughter;" vertex="1" parent="hyhj-3s_qtI0DntbfZ-J-21">
          <mxGeometry x="10" y="5" width="10" height="10" as="geometry" />
        </mxCell>
        <mxCell id="hyhj-3s_qtI0DntbfZ-J-17" value="" style="ellipse;whiteSpace=wrap;html=1;fontFamily=Architects Daughter;fontSource=https%3A%2F%2Ffonts.googleapis.com%2Fcss%3Ffamily%3DArchitects%2BDaughter;" vertex="1" parent="hyhj-3s_qtI0DntbfZ-J-21">
          <mxGeometry x="30" y="5" width="10" height="10" as="geometry" />
        </mxCell>
        <mxCell id="hyhj-3s_qtI0DntbfZ-J-18" value="" style="ellipse;whiteSpace=wrap;html=1;fontFamily=Architects Daughter;fontSource=https%3A%2F%2Ffonts.googleapis.com%2Fcss%3Ffamily%3DArchitects%2BDaughter;" vertex="1" parent="hyhj-3s_qtI0DntbfZ-J-21">
          <mxGeometry x="50" y="5" width="10" height="10" as="geometry" />
        </mxCell>
        <mxCell id="hyhj-3s_qtI0DntbfZ-J-22" value="" style="rounded=0;whiteSpace=wrap;html=1;fontFamily=Architects Daughter;fontSource=https%3A%2F%2Ffonts.googleapis.com%2Fcss%3Ffamily%3DArchitects%2BDaughter;" vertex="1" parent="hyhj-3s_qtI0DntbfZ-J-21">
          <mxGeometry x="194" y="30" width="296" height="200" as="geometry" />
        </mxCell>
        <mxCell id="hyhj-3s_qtI0DntbfZ-J-23" value="" style="rounded=0;whiteSpace=wrap;html=1;fontFamily=Architects Daughter;fontSource=https%3A%2F%2Ffonts.googleapis.com%2Fcss%3Ffamily%3DArchitects%2BDaughter;" vertex="1" parent="hyhj-3s_qtI0DntbfZ-J-21">
          <mxGeometry x="10" y="30" width="170" height="460" as="geometry" />
        </mxCell>
        <mxCell id="hyhj-3s_qtI0DntbfZ-J-24" value="" style="rounded=0;whiteSpace=wrap;html=1;fontFamily=Architects Daughter;fontSource=https%3A%2F%2Ffonts.googleapis.com%2Fcss%3Ffamily%3DArchitects%2BDaughter;" vertex="1" parent="hyhj-3s_qtI0DntbfZ-J-21">
          <mxGeometry x="194" y="240" width="296" height="180" as="geometry" />
        </mxCell>
        <mxCell id="hyhj-3s_qtI0DntbfZ-J-25" value="" style="rounded=0;whiteSpace=wrap;html=1;fontFamily=Architects Daughter;fontSource=https%3A%2F%2Ffonts.googleapis.com%2Fcss%3Ffamily%3DArchitects%2BDaughter;" vertex="1" parent="hyhj-3s_qtI0DntbfZ-J-21">
          <mxGeometry x="194" y="450" width="90" height="40" as="geometry" />
        </mxCell>
        <mxCell id="hyhj-3s_qtI0DntbfZ-J-26" value="" style="rounded=0;whiteSpace=wrap;html=1;fontFamily=Architects Daughter;fontSource=https%3A%2F%2Ffonts.googleapis.com%2Fcss%3Ffamily%3DArchitects%2BDaughter;" vertex="1" parent="hyhj-3s_qtI0DntbfZ-J-21">
          <mxGeometry x="297" y="450" width="90" height="40" as="geometry" />
        </mxCell>
        <mxCell id="hyhj-3s_qtI0DntbfZ-J-27" value="" style="rounded=0;whiteSpace=wrap;html=1;fontFamily=Architects Daughter;fontSource=https%3A%2F%2Ffonts.googleapis.com%2Fcss%3Ffamily%3DArchitects%2BDaughter;" vertex="1" parent="hyhj-3s_qtI0DntbfZ-J-21">
          <mxGeometry x="400" y="450" width="90" height="40" as="geometry" />
        </mxCell>
        <mxCell id="hyhj-3s_qtI0DntbfZ-J-41" value="" style="shape=stencil(7VnLUhwxDPyavapsyc8zSf6DKpawFQIUkNffR5ONh3Ev26lU5ZADt2WQxra61ZLGO7t4url82O80PD0/3n/afztcPd/s7N1O9XB3s388PPuvnb3f2cX1/eP+4+P9l7ur498Pl4vl8uvz/dflDd+Pfk1iXZw0/Dg+0CrRfj35cLS/PdxN9lUnezOp4bx9l1Ym+2SSynn7GCXODjlKUuKg0ucT5C41EockpU8OpXCHjA6+QiMxil2yzQ4qtZ93UJU8RzUVURJVzRLnLaUghZzBHZKiQyQ4qG9gXsGa9EYcqlhBh8AO3SSDQ5WciINHPaGD1fMO5lzSkxXIGUzFFM/AouTkt5l81iWwFZJoRByUO1RAOtKEszyivsk4zdxhPkNK0piDbykjW40g7Q5xBi5Vmg8e9Qw5nSUTBw9igpwO0kk+JEUdcxFQgnTKCFyN0ghwOeChW5RAtpRdSOdDtyKRrdBQNVoVJVJZVOJ8hmZSCJdKlTavUF1HyJY8JjZTozTK1pqkBwQuM4eTQ3ugOxEBjzqyNVLVaAml0mWhkHxwmPKMtKttIDg4TG3GwSuGsqLbJYFDHIR/veomBC5QZnRnWgD7wKp6Rd0LYsy+DVDXA1CZ7B3fr6IEM7f/nYsrZlJJKXH7DiVdjADg9mV+f6HJ7+eF9zdRtp86auuw79y+oFZ4AFj817Td2BNKO380gb2x8xr2I00Se79KmjukSuus24c5ib0nY3jpoNea9BK4PajK+uDceW3ef+T8PNGUMDL6HF4F84spivOhF7CPjD/e1mSwrzy/oHJE2gG7PYiuUf2JYdWbF8AoodcO/CUhKUH7qO4vhGssoA0LmWc0I3TFBOgDwX9jX1AgfIxhE4IzDhRigYylmGG/soSIbcnrLtTJTLuJ1kaXuGk0E6vEa5KvWZ/GzPC6w1qoV1Zkmve1j2F0pUXi7UfGQuNrdrKlqqP5Xh24tJeTFRaxJ2dYxl2orYFXb49iAnXvlBupoRz5nhrrxxMOgz1S5HxsAqi9NTWikFZwKK+Vzqc+qkFcF2jYliJqpI8IiQ3lbcRk08s2NpQX7NJ8zGGyra9NXkxX38b+dYW3sf//H/tP5DvzYdDCSVuYqVY6veHrYjHa+HgfGGZqVO+U2PfLNv69GZkDc7AhKqtDo61PxVbPFyhkgYwlrnT+LQVjWhwWpjG4/+VDBqF2HLq+4R2LqFNgtl+ISPZz0kku37iJvgRE2EnCPh2tibuZ9hnnAhLCI8zwijgaLbMsk2xsMNyeahF2nv4G1nqmkxsCn42ITmQsm27P4lNQh5Ydkv2X0ZVu7DvNF+DPMlqwnnA0+ht8O70R+dsblD/Z+4+X65rrw+3t8bZn+3+83vFHx6she/8T);lineShape=1;strokeColor=default;fontFamily=Architects Daughter;fontSource=https%3A%2F%2Ffonts.googleapis.com%2Fcss%3Ffamily%3DArchitects%2BDaughter;" vertex="1" parent="1">
          <mxGeometry x="360.43287742890834" y="123.94122481421653" width="43.27134216463783" height="34.956150305024586" as="geometry" />
        </mxCell>
        <mxCell id="hyhj-3s_qtI0DntbfZ-J-42" value="" style="shape=stencil(lVhbUhtBDDyNf1XzfnwTcg+qMMEVgilDXrdPT5zZrLR2U/w5jhvNSK1uaXbx5vXx7mW/C+717XT8uv95uH973MVPuxAOz4/70+ENn3bxdhdvHo6n/ZfT8fvz/fnfL3fjl+PTt+OP8Rd+nXEhSw0DFdzvf980Ke3vN5/PgKfD8xpQxUUFiFmSI4AuRQNSktavA2IQXxUgR3EkQkw2QvEcUCUWDaiS6nVA8pKzAtQo0RNAkazTWrs0AsAVTR0askTqULJ0A0DeSITqpeks1SIlE0CS6nWW+jzkZUCR0HThivRIAbVravSZt2uArAuXgiQGyDOJK7Z2lqUgQV86JJolMCdqtvo86XgZsJx4ATjxhK2oQ0kagD9B7oAIRbPVR+mFkM9LKPYOgdHbS9dHCl4i62lQzchMlUYKF51EHQFNy+gdiq1DyrTjUNeqs5SDZKZ8qIPTgD515CLAN1uHnMSzLKXJzeUOTUIigLZpoDrzdrlwYRJhBQiEfBCyvonQSD9kJ8lE6JRLyLqJADp6FiFJ1EIG8UzvADSXcqYONPxG1yE3mqVxaX2Hgp5mddi4KCwrs45bLHABQO4J+UANI/cAOMYlkC/bI7E7RC9VVxr9kMmRMAlkU2nYLus4NJABZCqViOANNQKdZiAzxh9GKckkEKNVDbRo5bNG0uRD7VmWxqxRLYBVGjpXNi2aST+gIWO3dyisH2CKdZMl3nFuWwfmQMk2ECrtSOHQohe4xD0uGTHuPEvNmuLoB2LsA1A/AojJ+kNZPOkyvb2tdGlTqS47kJuisgaQtGIQMKIB3SFZdVaVUMhG2sdPD19R1RHmJctUtBPrZ1w46ANhLmhExPwyoS6jT6XuE+KUrNX4VphMZrsKRGnMcfPM4BJAHEkpnMZpFjnKOky4yf6eLUtjrTAj9BSoy7+v01uX83tqnj3aAIPnpAQdI7wpcqM169VO0MPsyB36ZnKDKjfSBx1aYpbcTlkBQDOdU2fvXWH2ptewAnrSC71ultZGl9bubYTGzzSooQGoJXPPsYPqUo9Dkv6Hggaz+zhOV7SPsU8UMwaqwsZ6cAkGCNiNdENjVe+k1kP1nC0EVcky6bwAHOUr9jszZGDYo7Lnpx2vhLuyjrAL33jhIAGaFfpY6NSzWTMQsTEVswMGIrL5GQpg1vp3qD2HupWPMBUexmMOlKmzYYf3mkXD7Ng2mSRoUkCI2VMGWGTMHwBWY+yrZqAfEZgXOmtVuENinRDsk1LgDw1hWZhXdaCAvHm/qfRl4uMPoO8D8OH/e+vD4enp/Fy7/n/7Pouvzm+78fYP);lineShape=1;strokeColor=default;fontFamily=Architects Daughter;fontSource=https%3A%2F%2Ffonts.googleapis.com%2Fcss%3Ffamily%3DArchitects%2BDaughter;" vertex="1" parent="1">
          <mxGeometry x="407.90566632455784" y="128.89951188392445" width="18.91632145184958" height="32.4750193066694" as="geometry" />
        </mxCell>
        <mxCell id="hyhj-3s_qtI0DntbfZ-J-43" value="" style="shape=stencil(rVfbbtswDP0avxISqetz1/1HgaZLsCwp0nSXvx89Q05E22crsDdF1lHIc3jTIA9v+6fX3cDu7Xo5f939ODxf94N8GpgPp/3ucrjqapDHQR5ezpfdl8v5/fQ8/X59Gk+Oq2/n7+MNPyecZyphRLH7Ne3oBv/Z+DydPx5O9+cT5dSdz5Rk+zwLFd+d1xs4bAPEEefeoEQhAkAhVzuAZAp+GxAC1d6kkCm6bUBkyq4DxExctwHJU+1JTanRvArIzpqUI/kCAIVCb1JxVIAO1VGMFuABS1UoZgtASlfVtfQAJg+croXEAAIF4HStlIxJudGwHqzOketpUh4SQOhfSK+c8pCRE9nmg/IQQGzUSIF7QKGIvOb2eQZUynkbUCpFtoAKfCjJSq0AB0xSnZz0gNyydh3ALZpnQKAMoq94YiOcp5Q+AiiaIsjphUklwmBaOq1XoJRb0qpGOgRYCDfmKKB1GRoKEBSt6qJYk+KHwrsIJdAflgmkNAiIpZUcvfHwj2VAecgIsCg0ykNCXifbg5SHioTQYmmqQMWlzDXa57Z44+E/ITIv0rrAgE3cpL0jFnXSGMkZsbVtgV6trddIp32OAU8S2n1zJxUSoISOI743Sbt3Aj6wJ987HQTWMh8p99EkEU40Xjtz7wNHKqCWxZb0s9IZ+uytzjrUofHEtUp6iyTY45xlqMK4W+RzhqOMViwzXMF6oZOSmfbacLYuLznDPTEaJlu8z9TAISlYY9QZcHuycyRO4GKLtWuT7laceXs9KtXet1Ho5mwE1q8+FUA5+fvTQhe3d8nL4XicnjX33+07RremN5A8/gY=);lineShape=1;strokeColor=default;fontFamily=Architects Daughter;fontSource=https%3A%2F%2Ffonts.googleapis.com%2Fcss%3Ffamily%3DArchitects%2BDaughter;" vertex="1" parent="1">
          <mxGeometry x="419.63896627044187" y="140.64112173704257" width="24.44116405224231" height="23.273188927097088" as="geometry" />
        </mxCell>
        <mxCell id="hyhj-3s_qtI0DntbfZ-J-44" value="" style="shape=stencil(lVjbUlsxDPyavGpsS9axn2n7H8wQSqaUMIHe/r7yZHyI5ZwF3kLwxvZqtZK845uXh9vn/S6Fl9fT8cf+z+Hu9WHHX3YpHZ4e9qfDq33a8dcd39wfT/vvp+Ovp7vz38+3bWX79PP4u/3C3zNOFgqhoVL4d/5GmZbzN9/OgMfD0wWACy15Asg2IBXKaQQIlQIAgbKMAKWi24AYqThApZAAQCktfocEAClRdSwVqghgLMUBsCQSwBIbJzwClBjsIJHCeIelUgUsWaRl3KEwKYh0Zso6ApQquEOuVEaWCj6Sse52qImUtwFLplA8IFcAqF58xSIDACX0E68AIQVxKJGSozVQyXCHPN7BIp0AoN3BaSnAFF0KBZcPuWf5Fq21joBACQGEwgjImQpgaYmdkxWQiEEcdPHSaE4FxGcu5PJBUpfjdbVaBo+0ciUFvpSF8hhpztCXspE4RppT/4mtFK3jDs1HwJEkUxzjkDIpMgGhOMbBrC2iHcSzFEuX43WA0jLGIQq+tHr3Nj9PINIzoPTQb7kMj+sZxtmSxVmxeTP6fSF22oY2qYmCq6C0IBnVHqE1/3v5ur5eKbhSQoISIfXjvq2PyOaDdzztJns9XsWLNMO60xI9Of4FSVS9t3DPu63fV5c0FJGiK4lTNFyfo3fTAK3OfKUWtx65tRmXy2G8XmMP58fOY06q6u8L4mv5IvIJPluv5WwRxsvWx9GCsB4sH52esd4sH4urflDPVhunfIT5svhi+U4+MtXs1sN8j74pwn4ia0258CtclTg4/pEftgow3hf77WfX69S9W90G/dNbb7/q2XoF1JZmHwAbGATtkHzj22YYQKkB3Hhgdy6oZojnyIKMgmaX1pEkxk2jjUxurmPudfB6SzelDZtQAK3LKstVR6ETvdUp65jI1u8Iat6tEo+XttxA1mIDjUx9bACXtulBxkhbdWYAqGFqrYUSYKla9rvZtMJ2omqfRFe7yFB8tfp8aEQDWmMI/pGgZNhy2RZuxjHikAfXyeONB0E0RX+kil3Pht3iZs0KXcBYdEe64GGzUInfAjmlic1V/lp6r7Fl3a7U1gynU5uBkqMp4eed3GvrxQyPqo+Zb5y0oaD8W3egbocI31LMfKMTuDX8YIc4zV02r8IK2h+w1vURPgdN6WDTKupIop+hFJ+nTg12gs5qI5mMDFmPwuhNbvEjkTWVSKnzq58B4PPU9K7YAFjarmAZABXdNoZMR1LcJ+lIq3k3elKwwchfusLOsL2YsY9DQK0/+4HfAAuaLWZAhNK4cqTYTeeDlzbxZRSHidb2FAPqTwuceAAaSGZptBHlU+J751H7AwD78PaGfn94fDw/wV/+37+521fn93r++h8=);lineShape=1;strokeColor=default;fontFamily=Architects Daughter;fontSource=https%3A%2F%2Ffonts.googleapis.com%2Fcss%3Ffamily%3DArchitects%2BDaughter;" vertex="1" parent="1">
          <mxGeometry x="452.8083610123133" y="91.8446825158112" width="25.08953928371593" height="65.79183319295052" as="geometry" />
        </mxCell>
        <mxCell id="hyhj-3s_qtI0DntbfZ-J-45" value="" style="shape=stencil(lVjbUttADP2avGp2tRftPlP6H8wQSqaUMAF6+fvKTddEsn0yvBlHYnU5RzreXbp5fbx72e84vL6djt/3vw73b4+79GXHfHh+3J8Ob/q0S7e7dPNwPO2/nY7vz/fnv1/uJsvp6cfx5/Qffp/9pFMskxeHP+c3jST/e/H1bP90eL60Z4rJ2HfKadu+MuVm7CNTCNsOhUmidSjU47ZDLj6i2KmWbYfUiKtx4EQF5Dyl2K2DVq0Bh0zNhpQSNZB0KhRs0vomMUi6jyLODp0aSHrqg01a61ZADpIp2xNKpAqq1DRim0Pp1AU4dCo2pJphlXohsViSRAGEFEPwZWqBMgBT1yraVjchQTHl0aeZDwlnXSnYJLqMtNYbEX3WU5AAG0UoBu/QwQmKhP+Unxn0Ubh1vCaqyR/BiELKMBeTshCcEANVsQ518Hwd4AM6s30ZrF1PgYqde9pJBvbRD43OcMoEii7+AAdr8HRrOogriqdb3CmwOpoYVGw8ylfEhEbB2SvSUX144YCJEKuf23oCmqo61lv2KQSQMrPHhNYo4bntdo82ISJY68xbdDmAKk0nOJhq3QCMNAfPfrxKpirZHJQIEQGpLsaFLtwrnXbkr5DLbQzpiwMEICOPbXxBTQE1UioEXyIGoyIMIM/2EUJ7QWXdXIg6OiqcvYzptzWKFtRsoGPVqwslTkVMCwtYZ7w384I4Vx2kf8aBZVFThSHgsoq2GH1RE0ha1Yo/oQ2RtamQ0mccVHxw9w4J4E5kbIzZQScU1mDRLh2pULTVRtmeUDukZo2j6rMDj0W3VdZuQyp1wHedzNGP+Ss6UrW1K2tW+qB5JGNRzg6qXZEE82JbY0TzZSEiJ3EOispjZ8z2Ac4Xjcd9j+ShQrfYVu0Bk3pAJWVPnmnogy7zLBgvvtrQIlR6NidHiJEaUaBa+wxFsGraajPggfR1XHff4wBHsFTPtADXsijTi7dHKzB4/RuIkfpafDarHgYN+5BOc8PgKNINU3w9I/5qcUInjXuDLXuxrM9YIlS/AwscQ9OGtPnWsXS36iMWb4LzTZ7DMkTGur3ufH+Nghj56WuXq/b68HHH83B4ejpfEV3+7u+E9NX5Pind/gU=);lineShape=1;strokeColor=default;fontFamily=Architects Daughter;fontSource=https%3A%2F%2Ffonts.googleapis.com%2Fcss%3Ffamily%3DArchitects%2BDaughter;" vertex="1" parent="1">
          <mxGeometry x="487.07735263808036" y="119.03529354173747" width="19.47432174564856" height="40.17495777730155" as="geometry" />
        </mxCell>
        <mxCell id="hyhj-3s_qtI0DntbfZ-J-46" value="" style="shape=stencil(7VnLchw3DPyavaL4AgmcHec/XGU52ooiuWQlsf8+mGyROwRn2qW7b6sRmoM3GpxL/vDt8dPXh0sK395eX/58+Pf6+e3xkn+7pHR9fnx4vb7Zr0v+eMkfvry8Pvzx+vL38+fb318/bZLbr79e/tlO+H7DJdK8gVL4cXugjST9/+T3m/zT9XknHynqLG8ntHP5QGmWl0oakXwIk3xTagHJVycfKGakf5VJnpWknMtnqm2SL0IK/FMpz+dnocDn8kp59k8Sakj/RGUOmLkggxfEQlomQDSbQARiozy7VKiACNv7tc4aUVEgrxRmC0bMjyOQ+3EjBBSBwblSaE5/RudLT8jhoEIVhKAkCs7gSAnkUGGKs0amEjK5NGppzqJMTQBASdmnXQEq8ThvOJWpIkClNkeBLe9AWnCjGDyggrgZIM9u5fgzQHK1nKhWaIPMcTA3oEgbIM61wwXmEvMCYEqgXZgCugAaMjoRuzhU2GDMiVE8IAKVLJd8pLkreQwY9bUDMHpD803S3KqoHipx9ICIANyb9C7SERVQpeqajPR3Hrs1dK8PQIIqWeDaHOnciFG2sk/vPI44qwdxfan1UB4DdOncmRKoh7qwhWiRAcnXip9WNnxQAbXW2cQAjCo/BEggdr219G57DLDpNLvVBhIKnBRPMTLOVmM4MhtdQm9txwAhccnHPTLHpCH0zNn3VhBpzZ0UDYBAo1X6ROuAWnt2HQOUylxx1WYcCJwBdDa6Kqw4AzgvGdVTZLR2njAACY6sO/UdgIxVqp4JWMInpFKhUDygglapkVQ8ALExSw03ds0GFDhLPhbvJQE1LW2h3BE2AQO4XLLAodSQ5tPbcgl5ScTPhzpI7JmX3Jph6Z2QW6OnDpUhdbCKc63SAAUVEHsKZ4CGs7VlbwMau1YPQb2XEOfbKs4ZbUeAN8Swrm8B9vutbbgKit1xZ40pLzWK+r3VaF0qCDam4v1qADSodbDOPQC9IXiyYYAI+owsK1PDg/r9gLyUnHE4BIgL01W4GNse71JjY0TArUYFyvyGInDNauzvGoySoTFqjc6lRh7M9BgQ/CKXI6RkVmCO3qcKrzOshN0YjQrX+/s42AEaikPs5w2VGN9oLGM0B2z0UnGZ4Z1GLb4xlQADV6M32ggTGkG/ltH+JIFI/1pGu1vfv4yC7v3+ZZT9pePmaHQjlam4ZVTgULT6SrMN9qQClbJ4gNW0IAD79LaukYGXbLnlZRlFrTINLrJbFQPwUhoUbwAiZInbVazLpW7UsbwxB3eTiNlPij3TBoB7KzwmWOLXYzsCUQ07zwMU3gnYfp5mr1roUaDNRL/tKkxWXTbLAO9zZeFvAdIA8TebxjwYsVwKc9Bsfy9Q/+y+mETYJM1BjuLeKekZgGcPGdXPwILtDXMaKb5fNoBbQxUvWOrvTO679VkMmpdnUDlt+QqlcGltnt7uNo9jxuDn/3b9AGLAvt1tCqGhsERA4Zqe/Y6hIw1P5JOTl97yjzvLOz/r/Vzefty/IX65Pj3dPkHu/++/Odqj2/fK/PE/);lineShape=1;strokeColor=default;fontFamily=Architects Daughter;fontSource=https%3A%2F%2Ffonts.googleapis.com%2Fcss%3Ffamily%3DArchitects%2BDaughter;" vertex="1" parent="1">
          <mxGeometry x="364.05528090420785" y="323.77433708072476" width="32.03930371169954" height="44.65360609414256" as="geometry" />
        </mxCell>
        <mxCell id="hyhj-3s_qtI0DntbfZ-J-47" value="" style="shape=stencil(lVjZUhtBDPwav6rmPp4J+Q+qMMEVB1OGXH+fnjizWLK3CW/Lml5NS62Wdjfx5uXx7nm7Ce7l9Xj4uv25u3993MRPmxB2T4/b4+4VV5t4u4k3D4fj9svx8P3p/vT38934z3H17fBjPOHXCZejhDJQwf0+3UlZXPh75/MJsN89nQGKk9w0wEtPBNAkakAs4ss6oEbxSQFClRYJIEnSHHyV5NcBrYuvGpAkVHqkfzlZjuSk53VAzlINhyaZZCk5aRoQq3jCIXqJUdehiCMcQpGuATikIxFClqZJlyCdHSnMuk5AdVIIAMopug41SyQcoFYboU05XhdfkqpJNy+ZFK5WqVqtLUggAPwcuwVUotZWJHsNSOIIB6i1GgAaiAA60po1oEntBIDC6Sy9PWItgncagB5kWWq20r1QLTVoU6e1gwOL4Gyle5fmSKXRLsUCmJFVKOcCwIysQEsmS5WaANTaDOksgQGiJN2iKGUmaR0AI40uhR+pa9IQX2fzAV59IW+mJaTVZKnBbRmgSDAR0KJE3pBGu+jpRAoH8YVgj8QKN/pLyxuPYBNoNJBJa52HXG1RPR86vJX1tJ/WuwDe4QAhGC2VGXPNyOJFiwYijVEmw6G/Z8bmSN45caypgYgfQuRkDR8sHJvUaCFjZWhboqYxeI38OgV4JNaII81HXO+5Kf9lKuIOGUHe7nzY0RIp3JLBZXMoUgmBJFlnKKW53Vw/D8xeVw3bDU0pusHsY4VurdHZoQtShQG69QwcMpGc5mplUal1YzUyReNr9GgeXQSu6zFqNOM85931GriLKmMpzgSB5jUMUJbAPAybj46AjZFycHOCL0Jy1CXH5DAvJzAEAqjBvgmMFZMNUOREKw9bdCM+XC5MD83D0pq7nSUANLYU1ysRGuEAyzMjGoBIspSDnSUgzRb77KypIiZ9/emzuc7qwCwsNTsasuee1OZAXgBu7hFrAJOlEZNkCRyq7geIj7064MTRRCh8Vn30Zf0/ALh4+zbwsNvvT58Wzn+33xJw6/QdIt7+AQ==);lineShape=1;strokeColor=default;fontFamily=Architects Daughter;fontSource=https%3A%2F%2Ffonts.googleapis.com%2Fcss%3Ffamily%3DArchitects%2BDaughter;" vertex="1" parent="1">
          <mxGeometry x="394.6445541055614" y="330.1100864524542" width="16.904609131594043" height="27.531559112252033" as="geometry" />
        </mxCell>
        <mxCell id="hyhj-3s_qtI0DntbfZ-J-48" value="" style="shape=stencil(lVjLctswDPwaXzEkQQLkOU3/IzNxak/dOOO4r78vVJeyCNnbyc1RsCCxWDykDT+8757etpsU3s+n49ftz/3zebfhT5uU9q+77Wl/tl8bftzww8vxtP1yOn5/fb78/fY0WU6/vh1/TB5+XXAaiWVCpfD78iRS1b8PPl/sD/vXpb1SzYN9pZLv29dErY3+M2kDACUOAyAFauBGLXR/M0ApVgBgqnEAMFNBAKE4xpwD5QIAleIYQ9ZO821AIx5jKJkEsBRDoDAeIZEEJMKO+JfXGaDUMMDdSY24BKOuPAIqKcqceEAVagEAEukYtOUyAV4nf2MMbX5yW96lq3mW65Xpmwhh4pFXI64BNeVGyd3J5ALUZOrk8U7NxAFOiK2rcwYEWHORShrzYAXB9+2Dj8CqPAApGYPOv9UP9K9jTzIhVcBQ6t5me6WMUuB7mAplICMlHfk0mVRYnVRlBQAERV6VjhBHABDfti1kVAmx9p644LSA4jQRuR5mSYug/A0QXDVHUhS09r6+kF1CV5LVCRkOH6M1O+GV/uRe4nLwgAryoD1LC3vUt7OvTLMPUNmRPUVoGAYSd/9EBchiNUUqHrbGzxivNjjYTAFOdQo7PHtJWB0o4EdWlSm919yeIH2CLQsT3CcmPzXtgIgApa8SCwDsFUqyanbwhI8CLGhfBQmuLzlSWKkaDfJpWXEn1N7Cb6et+IljE4rRXBafh4qnbF3PNKtMELS1EjfHJ1rRZluInfa4V8e9ZSSOtNoGhmg1QHGASA3FUHz5FLskYin3GTAvqhVO5qmdjPI2sSgKetVRuVACV7IG4VqY6RflQXPvcDPAFiYQgwa/RVpJZSA+scS5dyQLGnSZ0vxCUnrqb9tXvy+YGJH/SjKmjeG+M/kf7RN8VyirBTLC9UVCV9nVHm2006vKmIFABSWA/eC3DRTt5NaPorOHO7xQ8v6hvfahsbgPyK+0tX9BW4UVTfZ8opfyj77E/9fefly/GLzsD4fLB4fl//0XBnt0+TrBj38A);lineShape=1;strokeColor=default;fontFamily=Architects Daughter;fontSource=https%3A%2F%2Ffonts.googleapis.com%2Fcss%3Ffamily%3DArchitects%2BDaughter;" vertex="1" parent="1">
          <mxGeometry x="413.00431984523175" y="326.4895858630298" width="22.626043482543537" height="43.286493381037324" as="geometry" />
        </mxCell>
        <mxCell id="hyhj-3s_qtI0DntbfZ-J-49" value="" style="shape=stencil(lVjLctswDPwaXzEk+MQ5Tf8jM3EaT1074yR9/H2heqgKkLWZ3GSZKwILLAByl+5enx9e9jsOr2+X8/f9r8Pj2/MufdkxH07P+8vhTZ926X6X7p7Ol/23y/n99Hj9/fIwrZyefpx/Tl/4fcVxpBQmFIc/1zclU27/3ny9Ao6H0xJQKHQDqJECbwNSoFwsQCgjQKVsTWqNetoG5EzB7tAjVeCDupiyBQSqdRtQlZNqTarU8jagxfH3DFCWAgAIcfa0CnBaXSxsAxeJMcD5kAMxcFpNErsDCzUQOOXEmcRM3AGtnSQaQBTqYIfSqNjk40ANRDp3CskCMnQ6ycoHgbQm9rSmQh1EmislF4dEMW4DYicWL1EuANAoNAtoFAGtUTVtk6+oRIHTUZ22gauBBJgkqxqg6Qt81hKwLjIobIPyhQMV6FPrg3iGMrAnUOo+BAVkdhhiX4gzw/XF2qOJm1ESUbTfz2V4dFsHlCz/mnMVSZmilU1myE8MNwAROByTTzkFCIiw5mhxsslU0Q5tdJkZoF6hnOgj5+egaRgBqRPAZUUiRjrT8uWEWYkRrWWV1x32HaXVdTYVZkGA4MuXKi2jznZDyQn4nIcOFwYhl5lS9B6j+htGS5rXl0HyljLdeh4Vf2O9K75ZoDI/uz6uHNaBCUlZW6TYiHGEOaHFt9gQTOJDTTP6AaxSBNKcxinLqX4AeFDncW6sDx/NRk5nGjLQbHrzM20lAfaI2m9lqbrLqJupA5ZRnYo7YEjEA3TOQJTGsO4gCc5SahO7lqnlDkRZot9Bx2w4cSYvta5NB8WtULNxFpypVYdqqwWpFECx0PIpthop0wigLcCl0oLprdOISw5lGhVI7iubmBrIJp4PKzOvOt+ByE1txAZCIwezSQ1wudFHn9gY11wR0yKPxoV+o8ijM2FfjVN9SHZjvT/rVFjkZQyLi3ENpbb4kKnYMiI0Dr4XXQQdKzQC1bW1iNtCHpPEYhgRNFtoBeoegGrSOoumAyTaQVatU4+o6KogrHo5bjyfv4z4GKAP/+8+ng7H4/XqZPm/vyvRV9d7lnT/Fw==);lineShape=1;strokeColor=default;fontFamily=Architects Daughter;fontSource=https%3A%2F%2Ffonts.googleapis.com%2Fcss%3Ffamily%3DArchitects%2BDaughter;" vertex="1" parent="1">
          <mxGeometry x="430.33023987924753" y="333.9094233881193" width="25.301338651827972" height="24.274646668396052" as="geometry" />
        </mxCell>
        <mxCell id="hyhj-3s_qtI0DntbfZ-J-50" value="" style="shape=stencil(lVjZbttADPwavxJ7cK/nNP2PAHFqo24cOO719+XCWMukrFH9pjg7Wh7DIalNfPrcvXxsN8F9nk/H79vf+9fzbhO/bELYv++2p/1ZnjbxeROf3o6n7bfT8ef76+Xvj5d+sj/9OP7qb/hzweVC1XVUcH8vv3Acv3y9AA77dw1oUQMaOQ8AlXxSgBQpZQhIRQFyoIAB2QAKOeRDpaJ9KJ5qwQB9Q8lUsdNVO109JQRow8UrQF5RIaAEBWgS1rgMSJWYFcA7B8MU5Yqqr5BIA5uiJ67WpgLiGjIVP/O6AYC3mauBHOCGL4Oc18xFCiBMXpigb8j4hkJFhzU5aiBIbKnEjhi5TE0TQ6IcQdY8Zc0LuTGE5fOOsvbXS/0Be66cmWg0IrBgT9H2Z/IgnFIH5vWD50uESPr8CqfTCN50nkFdSjKjN/Y4pBSRuJjzHthfs7UHv7+5UYHT+Qjsb0xZv1/YDOjfCmVDN/Igu61R0nRjqEI3mjPxwSV4gdP1VSih8yIpRnmpIr5FijphbUj3/YQJQa2MQgZVth1WAAlQtDobUgE4UJG9FyXjApK4wqMCpxChDl6ClbgMG3g/bzo+5Fy3R6dAOhlQ0O6vtj9QBPb0gBqJwwng0dtvahLEv1MimfMe2D+nnIcK2ilt/YXn26ioqSZRid2pyUTpoaIvsEV2UbE1yaiGeXSgidCIcF0UTUAdBZABUd1QLSBhmQ7tEYAMDdlbQAQ+cx4cu9EhPGvFamKKdMs3aoakHs4FMgbYzidZQ9JeraxIHTc0Gcym6uiorjR77UMfUdHslKhq5ZJlpQFAnM2X+cqtpRk5mvaExzPJs5nnShtT8/0JJM42gzT09T4g2fJvWO9k4/OzsX0FYOsZLyvM1qSVdUgA3mxoeOHiWQ9ZWekEEEym8dIoAJPplbVUALYN4sVXAE3nYWW15kT+oeVdAGyW94CjlInNDR4WEBdLbwEEPGCb3iP7ENo/Upj54MYXhsV60GGVom1AZlIZKvSfANEIs/eumCTMaQ85ndmq90pYc7Z70UrihP1mcVmhxv0vR8ik9U9N8jB9qHrbHw6X71y3/7cftuSny0ex+PwP);lineShape=1;strokeColor=default;fontFamily=Architects Daughter;fontSource=https%3A%2F%2Ffonts.googleapis.com%2Fcss%3Ffamily%3DArchitects%2BDaughter;" vertex="1" parent="1">
          <mxGeometry x="458.4045394877721" y="318.23829066704343" width="15.22620916958076" height="44.199812571408984" as="geometry" />
        </mxCell>
        <mxCell id="hyhj-3s_qtI0DntbfZ-J-51" value="" style="shape=stencil(rVnZbhw3EPyafW3wbvaz4/yHAcuREEUyZOX6+xSz4HjY3C0DQd5WI9awz+pjLvnDt8dPXx8uKXx7f3v99eHPp8/vj5f80yWlp5fHh7end/y65I+X/OHL69vDL2+vv798vv799dM4OX799vrHeMNfV1xskvpApfD39UntUvTfJz9fAc9PLyugpgXQipRMACo1LwBNEgsBmIT1BlXRfh+QotRVh54lER1SEbUVoBITAZhoWwFNGtEhZ2nuhjjtdhsAP6wALRKI0lk9oHWqNADdOS5IbwTQJaxK1ySFKa3eDyVLNap0Xm/IVVIlAITaekNCaAQCSD6WECyBRCs8XcMCiFUKC40qYQUYje4UJMb1AriBpUMTXVUYOUskitlLBBlZsMYoeRUpR4nEDZA4lBXQZrzfBNj06hEYacp483wX0/U83k+SoUtfz9coiXjZpgFPpEcVRvKuCjQYmQHqlp1NjGiMsHAqI52ZSVObuXgCWKSpkF3+K43UQRgrcYPpmdfg1OrcAEMThoFXyxqpYBglIpXuq1UB5xClK3h4vSEb9QM40ZkVWhUSei1Jr16kzgBVoqu4RRqxEtzkakmLVCQNUldaxSuM3DBKjau4mdIqCrJjSVUarR1WWgH9BwzQfYr2Kp1RTJml5gDYDPjbABSfDUBJDEZcHWdhFrzbAPOetkiDDwDHY5ZpeAPgWMMqJz6bzd0B4Lxk3ecDnmR2Q9tEgh+Ylar39NCKkABskrcbKCBKi5tIzNNhEuNZaXIDIieGzazEcQhvx0vGOx8A1AEybSi7+fAewcdiKfjubTxhVkIbv/oBdzLWgMS2AWiKIuWjB9B8UCnmdaD50H2Ng5VYu2e2+SGJ0V4pbA0i5/sbVxx98l0lXLgq58qNvnEnGzaGI7Yc7cwR2XPlyQ7/EwJDnrqArbRLVJuD6sl3TAutvm8d8UdmLI2emjAnsqEMhTk4QKQ5hHbDKQ0hlUR4PbrCU59YSTTVJsEBoBURafRYq1nR0BR2Q5ol52iZOgeYT6EBIJ6uGI7XjICQhWTp+Hf2SgcmUvB+QF/HkrQUP/cp52OMwi6rtVErYWgLboXQpytvjxBJUvSAxnY/xfe6aPtYg4+i5c4XOrqWbbdk8w23BfKFHRMKW2mEOfuf5j62WdqoG243QqwoNi5OGx2xgpe/BNqNRd+MIUjYGJr85PB9sr5j/7y+H29g+ja/OIhK60j3q0AM1uz9CDi3aCi06Yk22XaeD7QQpioluvOs5CTzCyteQHL25/u88F7OO1YZyxy2Qet+xBjbU+Zh8NZqITiRzuiIgNVnuUxyvUd0bl81XsEAbe5eT1sAekObSX7aZBqpgWUrB804WTdpq0iDe0milTqNeKrjVKTstzFjo8w2mUdLdxoAlMXSsQI7dYWJrdGrZy87Vsb3sm1vwIwB2tYKJ9paxDTr0WlRH9gqcyvLPfHp0w8Myhf7fesTbG767pyPW4VS1kH6PQkqFG1Rt82n0grYvY/R7rHxpc993Ok8q2jmF/S18s9JwTMkmkdaEqKvUfUgnHsxtN/AxoS47RcA6LwtcsteKM0yLVbfqQHAdoYAaPRuoCv95uMOcUEr53/4DvgjAH58/+z45en5+frV8vx//5kSj66fOPPHfwA=);lineShape=1;strokeColor=default;fontFamily=Architects Daughter;fontSource=https%3A%2F%2Ffonts.googleapis.com%2Fcss%3Ffamily%3DArchitects%2BDaughter;" vertex="1" parent="1">
          <mxGeometry x="477.20334232998766" y="309.17583974314914" width="41.51357472044765" height="44.37959842293585" as="geometry" />
        </mxCell>
        <mxCell id="hyhj-3s_qtI0DntbfZ-J-52" value="" style="shape=stencil(hVjZUhsxEPwav05Jo/uZkP+gChNcIZgykOPv044jsxrtNm/rtXqlmemeQ7tw8/p497LfqXt9Ox2/738d7t8ed+HLTvXw/Lg/Hd7wtAu3u3DzcDztv52O78/3l98vd+eV56cfx5/nL/y+4GoS384odX/+v5FS/734eln/dHherC8qzg/rmziyPiVJcVjvvXgCiF5SGgFJatkGBCduBKhKJDtokKojoPZDrgNUymhziBIcAcCHo9GhSiU7hAkQg2QCSNORkhP124DsJkAUR2zIOFIeAZVGumTRMACyUi9VlTrukLNkBkCYRhuKk0ao0XCkOgKq+LwN8M51p1zlEKgRrXauXQFVAjkT/q5GQEpDjSPrSNcWO+PXIxe6wBaArJRMdockuRG6NvEjXVuRSrwU/JQ1QC+moCJhFHVr1EsQtbFhEcv1WCNxZbtFCQSQOhMWRrDM5MH/yU2JHclZMiEQhRFc2ii5FrqmtjYweaZ5qiCYYHJlQ54h1ICT2ujV2nrst8JgdoBClNBbo+USAJ7sgGzsmgUkksnA1qzWBiYglAOd3OoJlQL0VWwSaKxAXHmw0DStilGSCVzuFWAdoJMcEAeyA9yajdFNAqGGRutWABqLNOQwASojX57003paWAeEXjQXRlO2OktvuDUQLrUur0XcPkkBwdislKxQqKlYUGhlJkRbgMBuZsI6gJWHaMlaM/VqRNIwgov0SHnyEsq0J25Fc1KmHRJhN/rcPBagghxAUmuO3SdXgNJuJnlLpZwoWWO09Sf73hCtxwFeH8tDKj3ZrgsO3xttwCFZVwm2OtO3JokMYJt7dL6MSlM7htysbHqwtUE/kVuw44+/MmUrJ5mMAQEmBpjSZKUngkNMLcGExljRrIsw/RBi5ylkrotvXQi+d/0f61lZgK60mPWsDUNqSPb7bMxA7S72+4xxyIYlWHtZSzU1bZ4SAh2XGUp4O4/878fzh55pttabGSbSOn7uAC1/Cvv+PIXx7/vu7mueo8MzaoWJb6Xzfy0STQPJh8Jkpx1+gfH5hQcePm5LHg5PT5fLluX/9nYFry43M+H2Lw==);lineShape=1;strokeColor=default;fontFamily=Architects Daughter;fontSource=https%3A%2F%2Ffonts.googleapis.com%2Fcss%3Ffamily%3DArchitects%2BDaughter;" vertex="1" parent="1">
          <mxGeometry x="518.6829126407588" y="324.64825067996605" width="18.313544641439876" height="39.90658875939935" as="geometry" />
        </mxCell>
        <mxCell id="hyhj-3s_qtI0DntbfZ-J-53" value="" style="shape=stencil(rVjZbhsxDPwavxKUqIvPafsfAeI0RtM4cNLr78utIXdJbyYo0Lf1WiPxGI7I3cnNy8Pt836X+eX1dPyy/3G4e33YyYddzoenh/3p8GpPO/m4k5v742n/+XT89nR3/v18u6xcnr4evy87/DzjUqJcFlTmX+c3maT9efHpvP7x8LReX0i6W99JCljfqVS3PmXi/DYgczRo2QJYlGXud/FASBQAKo3hAUrCADCoNweQShWYJImaOEDJlAUACiVvUhlUKwA0Kj4N1UzqAGA+sAO0PM/cBBSm6k1qZhLwwVwMgF4pgbCWQiU5wGAagBqlUvdOj0aMTBpUPJc0UwGAWiKX7IQC8tASsaf3yJAazfZTHyWF1OhWLhrDik6w/Zo3qcvM/SbALNZwQqIETBoWJV8PTakCERiVNJBvzCrfBgwSn4fWp+5sAvQqDwZA1FCZVFsBkEnaSCQCFMiMjiuAZRrkQS2IIQ9MHWkrM7GPq7EF0XU5IgBMeRBgUPKpNvY1wD4LUwonNBo4ETXQtUOdUY4qYIAGEmFkCnQ1QEaAOvdb+YDYN4Q0xygx4reVnOeG1WgB0meAQFerUVjUQs2Lq5EJmlQph4IY8xbbBvR4BVlBNMRvpnRVcgyuIBNrTRGQEgDUKUNrk1CNduoSne64gHKLYX2nqDUAEg2kZHpFb5m68H8Aw3wI12iaV8Y2IM2W8AIo8IIwUQl5MLIoSNyivV41TNA7ANQRC2jJPXC6WtR9TSvOtHUnQZdWcrvdYll74vmtBXJDZPq4ChMDJyRPk1fdRkJdn13kPhH90jhut7o6RWJ1aaGezNr/HNpEgSWXC6n3oWIVsIEkkKkyHFFsgghNnOUyAx9Siw2QYNmwIYh94izQFdDVpqzQxNkQgvp76x38AUmhRS26bCYidku81nWWx+Zyju1YoQF2v2pLCiwcvoomVBeOapThbZ5mH3gJDWwvEqkXR57T4luBlLC8oJknDiQMRySbVONyFMg+J4nV7oCVIxYWw+HIGDjCckWB5NkNrAIPIvnPXyLeXW8Pfz973B8eH89fTdb/x88k9ur8iUU+/gY=);lineShape=1;strokeColor=default;fontFamily=Architects Daughter;fontSource=https%3A%2F%2Ffonts.googleapis.com%2Fcss%3Ffamily%3DArchitects%2BDaughter;" vertex="1" parent="1">
          <mxGeometry x="164.63889244780034" y="200.0292410353759" width="26.99912451548844" height="43.59832447037788" as="geometry" />
        </mxCell>
        <mxCell id="hyhj-3s_qtI0DntbfZ-J-54" value="" style="shape=stencil(lVbbcuMwCP0avzKS0AWee/mPzjTdeDZNOmm6l79fPB45gdjs9M2WOJKAw4EBHz73Lx+7IYXPy/n0c/d7fL3sB3wcUhqP+915vMjXgE8DPrydzrsf59PX8XX+/3iZLKev99Ov6YQ/Mw4RappQKfydVwrgvPA82x/G4419RghR2ccCpW4DCkHUAMzQaBvQEmQNKAkabwMoA2YFqA2obQOYAEkBqHSvVgExBAhBI+QMx2tmKBrAEciJK1dg7QT7b+IERTvBDWpwwlSBDIAB0QEEyKhTfY3DeuoQONkrStkGVLJsktwE500Vba4lTMUhRw2ArAGpp2adrwy56lQzBIdNckNtlk3V4Yb4QAaQoHpOEzSdCEkNenmQCtM+NAJ2yESxn3cDqB5AuKbD2rizZZ2uCKloHyIkRwaEzSZxJOzyqprtk+SRySs57jFZqCGp9J50z9bs1oNsJwOQIvRKjoAMW2XF4dLEnLuKY48aFUKxAE+YKlu2ypOqV9PZslWczl6JRoiarUKW4uTh24ASO5lvyOcV0NTltNNSg55WYugtamlacoPD1oR9uwNydKUyhh71DpAjPOWLXYQW9V5KcNU+dAcXewmzQ4z7ltj7y4Z50+a1y+Z6fGyLzm5zy8AmOECefFkxipCd02OCqB8vrTE79rVL29Xe0wnZLmjso2efbdWHXnPr9mTlPbqqgrEPN8vMBtmhwneHyP/by8d1Yn0bD4d54L3dtxOuLM3TMT79Aw==);lineShape=1;strokeColor=default;fontFamily=Architects Daughter;fontSource=https%3A%2F%2Ffonts.googleapis.com%2Fcss%3Ffamily%3DArchitects%2BDaughter;" vertex="1" parent="1">
          <mxGeometry x="187.63291521439646" y="217.4365227827759" width="10.016797911008325" height="18.992003386813487" as="geometry" />
        </mxCell>
        <mxCell id="hyhj-3s_qtI0DntbfZ-J-55" value="" style="shape=stencil(fZbdcgIhDIWfZm8zQAg/17Z9j85U606tdqz9e/tmZ0c0uJ47xP0I5JwEBl59bp8/1kNwn6fj4W39M76ctgM/DCGM++36OJ50NPDjwKvN4bh+PR6+9i/z74/n6ctp9H74nlb4nbmSKZeJCu5vngmZ6jzzNAO7cX8FVKEsBuBKrgKg9oAE8gkCbLeUhEoEQKSUDZDLeWYRKIl8MEDRmHwfyBrBG6Amyu4+kDxxMoB3jhwgYu7TVAsVkFcWCs4CTBEoF4RctKeOxHIf8IXYpikHikAIf+MNUW94AGSSaoAoFIE3AlOyeWU+p2E5S9yfQZcQILVuQOwZdJNoS9Ls3wA5u2XZTIHECqeJ9kDpSaauRiNVcAY1QhdBzeLBli5WazpkSsBLV25uRaqWRyFawTQzRRIQYirJzq5atkBqLfouwqUxLBepthWb10vrWZY6UOAeyKCCtDV625mm9gmUC4Wc3VLJMMIE1BsA2FW9JraVlQB7n3c9oMKhCLEvIM1zBPZ25/umNQ1tVEC2G+fFCC8g398O2hNQuQlVu752DBfA+q0ptnqO5JFmeuIuo9DY7KjY71UxdJV4EntifPWorW++R/dC4t7V3DlIB5cHx2bc7eb3yvX//QNFp+bHDT/+Aw==);lineShape=1;strokeColor=default;fontFamily=Architects Daughter;fontSource=https%3A%2F%2Ffonts.googleapis.com%2Fcss%3Ffamily%3DArchitects%2BDaughter;" vertex="1" parent="1">
          <mxGeometry x="187.69436867398076" y="197.50024996681532" width="3.738031817692172" height="3.7321889730861586" as="geometry" />
        </mxCell>
        <mxCell id="hyhj-3s_qtI0DntbfZ-J-56" value="" style="shape=stencil(lVfZchpBDPwaXlWa0Vx6dpz/cJVxoEKMC5Pr76MNnoXRLp3KGyzTjI5utXYjD++7p7ftJvL7+XT8uv25fz7vNvJpE+P+dbc97c/2aSOPG3l4OZ62X07H76/Pl+9vT9PJ6dO344/pH35dcC1TCRMq8u+PJxTq3wefL+cP+9eb8zVRk+F8CBT0PqBk4jQCCk1f7wFypjAColDh+4DUqLUR0EjafYBUKiPAnnwEuQ5gkrFIKVECSVsArAMgM6UAbgiUywgoFApIuhCPgMIUBZS1UR1zKEICyloD1TwCKuxDE9IxpCoUQdJqAYydrgpvUOvrGJLRV8ENgZmYB4RapUHntPgk7NIMGmF9cnVVKxNQUE69sTMgUwMhZaviWCYrHMrabnCSs6QVSa50Ns8ApgAAxjWJYyOMXgiwEHWr1DJgn+lFPKCApKsNsuxDYiCIZnpxACUGIRm/nSCsShl02shZ6wiIPat1QOlVnwE2Z1BIaRFSIQFcaoGa04NVCczKOmt+BmgfhuuA6CeZARTcYFMlOke5qnYdERcKUjjwc/UOodjlTEEt+bpmpCAbZS6kRBmFJH0M3XADkclsMbs5w1TQ2Ghd8zf8DoB95gdpqSDUubaQnLEFVKkuHGKaAgjQ+s83IRUkiEhVfJUY3LAOAPw2uvrGMRxMJXXnn3MwaiCnNlE7W2wU0QIUvMmZCBXsM7aeqNsFtK916z5aegAzoPSBvp6Dz7mE7vWr5xc2bXRH5Oa+c84LmXaTXC9RV+983moG1BbE00IiHACWcRwjsq0V9WDa+EZzCIq7nPrafJ2TmHjcxTjn0FeVuwvfmDNjcSZvoIwXyurXEixNWwbdAMO2sJQyQ06YPQu78xW5c6U0ukighP5fvU1FEvD/Nkei7xfSjC76a5MG1FMXbzFmKaie6tfzAueW1cfPLbzt/Oer57/P24fre+7L/nC4vCbf/u7fi+3R5Z1aHv8A);lineShape=1;strokeColor=default;fontFamily=Architects Daughter;fontSource=https%3A%2F%2Ffonts.googleapis.com%2Fcss%3Ffamily%3DArchitects%2BDaughter;" vertex="1" parent="1">
          <mxGeometry x="197.02602835826974" y="207.05193141425752" width="14.71215053883825" height="38.908740524285164" as="geometry" />
        </mxCell>
        <mxCell id="hyhj-3s_qtI0DntbfZ-J-57" value="" style="shape=stencil(lVfLctswDPwaXTEkQYLgOU3/IzNxak9dO+O4r78vVI0UEbI3k5ssY0U8FsBy4Ie3/dPrbkjh7Xo5f9/9Pjxf9wN/GVI6nPa7y+FqTwM/Dvzwcr7svl3OP0/P0+/Xp9FyfPpx/jV+4c+Ei5G0jqgU/k5vEhX+/+LrZH88nNb2TFk6+0Y1AftC3Nvbm4YAQjX3DiUSAQClwB2AA0kDgEbNAZQaAJgDsXSAXKkWACgU+6BLIQVZTUqpd0mYQrgP4EipP0EadImZtI+hFpIIAEIpdQANVEDhsv3dF06FFAGEWg9okQRkqShx9ICc7wNESbV3yT4BABopuhgiFVAHtTKpz1KqAFDmMi11aJRBHcxj16AVs7UZW4M/IQCXmrE1eYCAwrVKEnzQiEutUWo+rXAIhDDTf0EwTJMdIX2aNM9tfhtgTHD8FmIEEIo9+7RC9jX2PWq1jKgQFvQGkEGaxgbbnqCQrq1tYkB0jZ6uY5YQIBDrpg7IJQvapXVZMfcAsiUTAqS559d0BbPSPNZNB0FAvQEIIGibW6F36aOmzn6j2AmMAOLn/TiYEFt13lCrtGYQtHWcH66JGpiVI8AVLlPGLepPKPMnPgFA5FPfojY9FWTJst76Sjd8Qg2+gcxJRG8JfpBZ3hA1sn2vD3o1PW+v9rrZo6ahkHiIGwBTAVEnmXt+NZgqklhM1QFMC4BCjJrMdZDAHZQW+i8AKw2YZLHODqw0GZozMftNXQRr4zhL7UVXKmwI9ZOPG5TG4pXAKBuRIvOSz8oSQdVM/PT+mHiHUp2KuwvYtgBE3YgAnlfwPfM+nQlmM8wDdPEG82ETLFy1ye9y62tgvtEKODN55vq7OZJ44tcNHhCLJliZAxqo337mO1oc1PzXK+h044gbucvd525XFWevqK6fvQF/aG8P79ftl8PxON3W1//767m9mq72/PgP);lineShape=1;strokeColor=default;fontFamily=Architects Daughter;fontSource=https%3A%2F%2Ffonts.googleapis.com%2Fcss%3Ffamily%3DArchitects%2BDaughter;" vertex="1" parent="1">
          <mxGeometry x="221.69910120191344" y="191.492366157912" width="21.92162245700347" height="46.37815904679955" as="geometry" />
        </mxCell>
        <mxCell id="hyhj-3s_qtI0DntbfZ-J-58" value="" style="shape=stencil(hVbJchtBCP2auVLQ9EKfHec/XGU5UkWRXLKc5e+DatLKgDToNguvm+XxYOKnj+3L+2ZK+HE+Hb9vfu1ez9uJv0wp7Q7bzWl31qeJnyd+ejueNt9Ox8/D6/z+/nKxvDz9OP68nPB7xlWgdgEl/PPvQwGcv3yd7fe7w8Ke9HeyAISE6wBG4GIAhaHSOiBnSGQAuULK64DSINkYuAEHMVT93Q0gNZC+DmgVir2BGmBZBwgDs80SoAT2Bbq1T2EVRKBbhzA8vyeg4uw5SGkvQMn5I0GRe4Mixr6NIt6375CqTSgDBQBCDRAtooc10yuapZHWQFIAEMi2Bqw+RTcoLS2NWOKsMhTHbBpO3gegJ2pO0GvAizY6ZXFDj4iaIZOPIaq0KJPEZ0k4AOA4b9FsJYoBITsAQo0ABGgLRw9cSlAtu1scc/Hci4mhVXDdjFCi7iEgdPYY2Wcv2kqjiHd1pOMqwVACUnTxJSMaqr/Wa3KjjyXSow7d6UuGEoUgg/fXEtAg4poioWvO+kjCbgEtqnIev69ZLVCDtLbiJ2HNQ8bvzyn2ddYjMCB2Fj861ckIwConVi9UciIqkUCz7a+jIhrON8zQ0pfAo+YdWij//SQBkr8gBw7lsa1c7ePZn8aysgg4B71AfvLr7I32I1U7Swqd7Tm0d1qkJU4B69Dva017L2gc9DNKOSfB+eSnZkujkVby2WyBqwwtWKmXb5oaKkX18+nBQvt4AdaH/9vz226/n5fv5X+/beuneVPn578=);lineShape=1;strokeColor=default;fontFamily=Architects Daughter;fontSource=https%3A%2F%2Ffonts.googleapis.com%2Fcss%3Ffamily%3DArchitects%2BDaughter;" vertex="1" parent="1">
          <mxGeometry x="219.63172710473123" y="217.32894019547678" width="22.037392941134385" height="10.050026001606057" as="geometry" />
        </mxCell>
        <mxCell id="hyhj-3s_qtI0DntbfZ-J-59" value="" style="shape=stencil(lVbLctswDPwaXTEkSIDkOU3/IzNxak1dO+M4ffx9oapSTFjeTm+yxDXx2F1gSA9v+6fX3cDh7XI+fd39GJ8v+yF9GpjH4353Hi/2NKTHIT28nM67L+fT+/F5/v36NJ2cnr6dvk//8HPGcaGWJxSHX/ObSlH/vPg8nz+Mx6vziUmkO89MVe4DcqDUOkDOFBCgUI4dQAPVfB8gmVoPKJEKAjQKPcDelHgfoEKx9DkkKiAHLSSpA6RGNdwHWMTZAZSUAUAp9yGlvHRmE1CZIveARBUkXQuV5m/4e+cmoBkRqs8hAy41pVp8laQCQKOUfB8E5BBDoBB6RKEK6trq8nnlBlNASYhnnwhsdYskfdZSSQFdqxL3ABMENwAIJNkDBORQxFfJBJFBSMUCcFUqFABAdRHYCkikSHKZqmt1g602QHEaXVV7LyTnZDlCY9JGzfG7LK3crpKF1Jc1WUiAGtY47qtkGm0IIN69TaMBUMPIx82HpJje6gAVUsME5JLO5jwIcFPWrJSQzxg3HfkCKbaN/wPU7GeWdQb5vdl36G8wM2wgB/OI0jfuyqq2B2/2rW6rRDYBfMONaQSAVkdzxj5rG2MKbojRJzFpFNwgfu4yNmNbHXpmxEQRBHRj9hH7XliY/LH7oBZEUmfcJEBraXH1VTmUAenUa9+qi0hN3P+7URrFzn7qYLpF8aoMC8W3zzdvLAH6im2NyfVq2R62z9/MAzw/rJyld3eBO+HmHgwE/O+92R4+lu6X8XCYd/br735Jt1fzgp8efwM=);lineShape=1;strokeColor=default;fontFamily=Architects Daughter;fontSource=https%3A%2F%2Ffonts.googleapis.com%2Fcss%3Ffamily%3DArchitects%2BDaughter;" vertex="1" parent="1">
          <mxGeometry x="242.8384089477538" y="215.84956086767056" width="12.44040079386723" height="16.44126759556766" as="geometry" />
        </mxCell>
        <mxCell id="hyhj-3s_qtI0DntbfZ-J-60" value="" style="shape=stencil(lVjLUhtBDPwaX1XzHs2ZkP+gChNcIZgy5PX36Y2zG0u7boqbY9IeqdWSemaXb14f7172uxRe307Hr/ufh/u3x13+tEvp8Py4Px3e8GmXb3f55uF42n85Hb8/35///XI3/c/p07fjj+kXfp1xRaWkCZXC7/M3OUqvf7/5fAY8HZ4vAVHqsIAiMV4H5Cy9W8CQ2K8DUpURDQBBdiWAILUaQFWp7TogdilqAK1LK+QEAIIB9CCZhJSr5GYBSTQRWrO07gH/iN4GqGQLaEWU5FCjhGxZqjSHGqTYE0qaedsOafm9pdJJWiAsqQwrvtSkk8LlJtGKLxZJjNYiIXhAJWqt2RcOgE5yAOvVnaA0JNQ1Fps0aMgEoD4kiCWRkHSVdIW8Ca06JFlpNIREWnQgANuivUsgJwz0tGsgpdIYKsGKT6NEMpfG8D0NGgobAiF4mlQlEn3jiGpjGnEeVdeScLyCh8R4hb5tQ4w+E3etEK5HpyDJFBirWXnBw7Y4up9MOCKRI7RuJJEZIPuuHktTbQPSLLaLQgTSc9COWgCySkRNugyuBZCpXnWZQwsA45Od0KRabaAjIsthSHY91+astkud5hQvAUyuVYIDQH3shO7NA5JmkwnKidHTmjlgWJbA2yAsAaBOfEEa2aPoUWdPIL7EWAKJTq1dIpnf+L3sAINWGmJ20phoIINJ1asVgEZC+jAAysnF1yEQljqmtTNAle4g7NFmWWpoWjIr4fHWNpHJu67mUh508ZaVTQSAhQQ/06oHdHJCWibpAuiipB9gdbsLKcx2YnvLDa/WiFVM+iFB/fYEvoFg8YotA9TLHBkysCnz9VPGbOUXM0MXXG0+/hjpiGlJumUIEUWm1O5nEjhgvgF3hWhlAQNXiY4AaCsDx8wP7JojtTUppMqtehOKUa/sMoDl5BYiDBerA8pq64D1ouxCg6Td5G60FyblFQ9g0oC03QadRjM5Aa3ipIFlwmhVrz3YAnaJS/7ChCowa7VyrJMW2TV0dkUXOhpER90bMYxAdqeMya82DLxAAoq66p1AVYGQ3Akg7Z0ZnNzA41YPt1Z/p6zUAJTmZzCuiMwmra/q0wl85ukKwFwP7vY+h07rUOEN3TVX5/a7di8OtncgxkJWGwDuyQSF+yCg0OeGulJ3ahyQfHuiYVn/g1Z3f8PCZv2AwjlPkiO1SdPz2wpAn9/ef6/Dh/+vfQ+Hp6fzY+Hl3/3rIL46vyzm2z8=);lineShape=1;strokeColor=default;fontFamily=Architects Daughter;fontSource=https%3A%2F%2Ffonts.googleapis.com%2Fcss%3Ffamily%3DArchitects%2BDaughter;" vertex="1" parent="1">
          <mxGeometry x="240.05301593692207" y="206.2935232245976" width="26.807173927584152" height="20.89558522855659" as="geometry" />
        </mxCell>
        <mxCell id="hyhj-3s_qtI0DntbfZ-J-61" value="" style="shape=stencil(lVfLbttADPwaX4ldcp/nNP2PAHFqo2kcOO7r70vVWDmkpAlyk2WOuCSHQ+5O7t4OD6/7HYe3y/n0ff/7+Hg57OTLjvn4ctifjxd92sn9Tu6eTuf9t/Pp58vj9ffrw2Q5Pf04/Zq+8OeKy0IxTigOf69vKtXy/8XXq/3z8eWdfRJqbOxjoJC3AVKoNQvIFDoABOoWwOoTHIk7BRsCN6rgSBqiWA8iVJCHSjkbQIqUUAyRqs1SUp8M0qqAbgBaGAEx5EzFASp14KEUqjboEollG1D1ezatJY+oVgGtUSqWSpqluA3omXqygDLerAJiUK4Fg2hMASB6J3GACrnRmbINYnqD0lQo20JoWAUAcqdko+4NtlxOnn0aVWmATNoQ1fXonLitrvZBdKoAII1K9UE0BEjUXNSVEgIwpbbIKxKaOFRiBgjkqzZ9sE3a9ROgcpIXHgJFJJbBF0J7pKM6ZGL2gAhKncOgzjtAQGQqFBcecgW6oR7EAjqsQ0l+omhaIxBLlZVue7TPldkE2CP1RB0EPR3JcakMvd0K2rO1kQCd0bSyo8bc5luF6+wBKAalhhtaCmigcEo+jh6A2Kr07q6n5xGw2UCLtDLysGzRRAJimETA1YFhWlVmqtPKALVShSxbD0pvRkf6LKDoWHQikKDeK1uTpUbVwqFdII1lZAbgBlJquCwVFWO0MXV/pCJDFtYndR1jeV5PGmSrttdi/2HQoeyplwok92JxEN3pALeDlxiZF4ON87iM6s6Y0BbgZZgjXHKbX0tiGTxcL4B4QYoRJogXs6pQAQ6UEsVWmMeiv943am8rEMYGu85R9qMwwHVV9dEx4oOVp/npH2DPqGA77dLzoMkso/43+woaYFrobX7iWKfX7etIxy3/Agit/efyKVC21D7b7yfYkGofrX3G51koBJ4dmh9xlwV4jfzsxfZje3243aKfjs/P10v4+//9rVtfXW/scv8P);lineShape=1;strokeColor=default;fontFamily=Architects Daughter;fontSource=https%3A%2F%2Ffonts.googleapis.com%2Fcss%3Ffamily%3DArchitects%2BDaughter;" vertex="1" parent="1">
          <mxGeometry x="270.75292963015136" y="198.26381606759367" width="14.339504513904831" height="41.10588212241182" as="geometry" />
        </mxCell>
        <mxCell id="hyhj-3s_qtI0DntbfZ-J-70" value="" style="shape=stencil(lVfLctswDPwaXTEEQRLkOU3/IzNxak9dO+M4ffx9oWpkm5Cybm4yjSWJxeLBQR7etk+vmyGGt/Pp+H3za/d83g7yZYhxd9huTruzfQ3yOMjDy/G0+XY6vh+ep9+vT6Pl+PXj+HPc4feES5kaj6gY/kwrQlH/LXyd7Pe7w419jhRqZ99IG7CvVPv9OZMAQMmUUgeIdmT+GKBMor0HgQIDQCF1gDqvrAIqU+2vlCpxAQAjtT8hF2oVAC4kzgCjgQGgCeU+DBqpRgAoFHoftEEfmpKWDlAT5fQxgIPRHnppZCrIiUqlv5MdGtCdEpXcAypJALxWSr0TrVFEkQuk0QMqUl+kKL2+rzysC1yoNn+EAoBpJxfvdUM5xxSi57UBcST1Aje5FIEAcVfKFIE4Upv3uwAuNKz7kCg5MUVScKXCxI5WhicUU0L1gAR8UJ0z7D8BYxlYACpKiIuLt06jrNY5JW9pRSe0RaQtcOiENlfrW2mA6mp/R5ejOreYdUBYOF3n8rlOq1Ba5ChKIM2+Z93NUUu5RY6iMjC2OfGAO320RO+1AJqs5RT2vAYQasvR6AAZ0vR5QKXctzlrEQWknFWB0GvDmlACtI5O9yypkCCAdZy+bFgjRRmUmFp/paxz7FcBol5MCcvVBqTc+yANtkWbd8SNZAwnIM6+aY1DHPCBLwPSJSFsJkLl21c+26EC+7DgCN5nMThYkAFB7CtMpIQi5sc9hvQrpZ6bAJstLwQU5plj3V6JxdkzEKg5V4qzR6UrVorB7w/sRfy8HWYC1u0rBfX8oLrFvjIyzK+U5mBeo4veC599wNy3t4/ra+llt99Pj63b//3rypaml5k8/gU=);lineShape=1;strokeColor=default;fontFamily=Architects Daughter;fontSource=https%3A%2F%2Ffonts.googleapis.com%2Fcss%3Ffamily%3DArchitects%2BDaughter;" vertex="1" parent="1">
          <mxGeometry x="551.1465778045877" y="490.538508847666" width="6.320928908359929" height="38.692609614241334" as="geometry" />
        </mxCell>
        <mxCell id="hyhj-3s_qtI0DntbfZ-J-71" value="" style="shape=stencil(lVjZctswDPwav2J4E3xO0//ITJzaUzfOOE6Pv++qHqomJG2nb46CFXEsFqB28eH98PS23wX3fr2cv+5/HJ+vh138tAvh+HrYX45X/NrFx118eDlf9l8u54/X59vfb0+T5fTr2/n79IafN1wQ3yZQcL9uD7yKc3+efL7Zn46vd/ZFWhntk/i8be+jqBsATXzdtg9eSh3ss4S0bR+dhNGhII28PzbJY8BOUti2T1VUjT3LT4a72fhD87koADLM7GtP31yAIIUEUBGfcchJIRUDoIUR0EQJAC4lPwCQZFaz3MSNLiHL1ROAEx9HUkSppMrJ9X/PAKVZil50jKF4WgfwLo68yEkcc8lL9talTFxCiMkwI0tjdUDQYyuglIG4VLSHOANST8M6NYroWIeKUuo2oGVJo0taxTUCqFJGl1QlFgJoXX5mfQFZCPkAaGkEBMpWAHSsQ0uSOMCNlW6FVhpBR3OCdhXZSqsRDZyZGAAaYWTbcR1DFk2PTnkgUaOwJdkgGim1Zqv0yEOOBJA6E2ZApk2tsevWDIidj1sn+LGpm5dA+I0Y4qiV2iSStCJLhq54UlkMzaqAFqkkSyi1UwtIpKnB5pItgKkA2Gw6CDEo0RkQoXqbpczI16ySoQ6sg+7YfFdqNlJwhO25TKdc08UJvHJ4XzP8hlYxQOz0v285JpaY1N4C2PIDLU3OAiJr6lUAWx6y1IVYOkJXzCDDb0RV2QLk7II1NQTbNrzdEDX0M9cndbRNXeEkiSEWK32Yo5WcgB2vjmkt2JgIW/1iBk27AMkS1u5k1pPSe2odoH1VmHeyRusQtCvjDCh9dq9nKdvRjkSzOZqCDRp7JRvtSe16EhNddXOQanbj+RVbXDIdN10fmEvVqgbuS5lMFIToRi753J9sba5mUPvSt+X1wgV7I0PtGzkB7zNzd3oF45JfAArtOA/1HjsuVAlsd7CiAXult1Yt1r6RKuASFxfvZwogZeEP21qDVRh4mFmCJBj7LJm833W9mu0Tle1l/mPfYbfsRwpN13aSH1yWRnHBE7ZX+T4oZ4rOV8aNfP7fV4x/2+PH308mL8fT6fbF5f7/9hMLHt0+z8TH3w==);lineShape=1;strokeColor=default;fontFamily=Architects Daughter;fontSource=https%3A%2F%2Ffonts.googleapis.com%2Fcss%3Ffamily%3DArchitects%2BDaughter;" vertex="1" parent="1">
          <mxGeometry x="550.0459593331789" y="489.15901188456564" width="25.88440634219187" height="30.752808579964586" as="geometry" />
        </mxCell>
        <mxCell id="hyhj-3s_qtI0DntbfZ-J-72" value="" style="shape=stencil(jVfLctswDPwaXTEEwec5Tf8jM3FqTV074zh9/H2hqlQESt72pjhYkgB2F+QgD2/Hp9fD4N3b7Xr5evgxPt+Og3wavB/Px8N1vOnXII+DPLxcrocv18v7+Xn++/Vpipy+vl2+Tyv8nHGcKOYJ5d2v+Rdfqbg/v3yeAafxvAJ4Ie8MQBRQ7wPEUY4GEB3cIThy1QCSEIMdQqYiBpB1T74PiIW4WICWId0HpEqVLcCTAznkQNmWNTFxBoBI3u4QIgUBACFnd9BCpwJySFRtH6ZWRgAIFLwBsHYaVUmPFCwgUkZH8v2RmCngI3GyfSDxMOdo44UKitcEbVGZBBBJm9C1WbkLKpQ3THVNTbvxhSl1FaUMzl+UdlY6AdazKCdsfVQZaP1MtaOEJwEsVUBnL2o4f1PaB0SqNmMtUQItKNIL5x89zpWSzdnrnkhpcQNIsAtZuyY9gEEOqTQzWQAL0fcBkbirEpNDShMSmwNn6KkqzY6p2mlk87pDstQolJCUY0/tgNfX5Sy11YGRNH2zzw+pIabqBAi1i0cOX1y/PjdDvsfTYvMV6O+78YB0VZVmZ5rSWgAlaqXYDXJ1JwBg53qaRg97XEsb9MsU1C0QIPSjXx0wA1YUtR9bJV2CEe1qPzZXae1fFqS/v2jlkF8E38q4AGIbjPs3pNDPzVIogE5MVLBHUvZ6sIPOYbGAhNlUmraWTiu7QTxT7MSsdzygTkfRmoUUyiCBDfNE5QoMchsf4GDT81gxC0Oicn+v0FtzBuqXVr0lvsB6ht59p5EDSJqad67EX8B5apsWq/gIdKb3Mr8ZmtAspF2c1hkARihFeVsi1IK0MTz8cvmPp45+fDyUXsbTaX5nrf/fP6z0p/lRJo+/AQ==);lineShape=1;strokeColor=default;fontFamily=Architects Daughter;fontSource=https%3A%2F%2Ffonts.googleapis.com%2Fcss%3Ffamily%3DArchitects%2BDaughter;" vertex="1" parent="1">
          <mxGeometry x="571.6499886953475" y="491.9955781462404" width="19.320584736166346" height="18.13821391716592" as="geometry" />
        </mxCell>
        <mxCell id="hyhj-3s_qtI0DntbfZ-J-73" value="" style="shape=stencil(5VjJblsxDPwaXwlR1EKd0/Q/AsRpjKZx4KTb35cPhmSLz542xyI390VTbsMhpY3cvD7evWw3Mby+HfZftz9392+PG/m0iXH3/Lg97N7s10ZuN3LzsD9svxz235/vj/9+uVtOLr++7X8s/8OvI44D5bagYvh9/JKF0vHL5yPgafd8DhAqaQYoaQCASrlOgJJJ5TogmkthAtRIjACRdLZQlRpwKWYKMgFUKWUISDwBWqSELcQ5rS0RIwuJ6hxDsyxFABBSnQGVhGGWirOglFFamWKcAY0ScIkbFfaAhgCV2lwHDoECIlOhqN5EKQBgec0+auiT0T/5vKJCcOxJGYBCCeSVeeVSwhaYkqucUEA9yiSO30YmwA2LQVzLGV1RWqVnfTT1YMu1OriWy4EicilRm4NOTJwwmeYYxGJADWFlmmOQ0G1eBEjsZTqzgNKaAvHskn1BspEaBRe08RcA8qjrABSqoHAlUp7JlxQKUw2kKwBSgVqpiAcE4JJGP1EsSxW4pIlkdskqI8AlFd8PJrcC0lpbZ/8QpkgNZUl7Q56UjDKgRq2eSxUORTMgbk5TxBFUFzI14I9y59kIgBj0gtXAUdu4DiRJCxV15wOq8aoCxgm9fr6xH7gRVtjmt6c13ADaSvAqHFTLeSfyVEB+Fn/mRjbGRSB3S8Bz15hiCqpY8xXj3PemqyVzLhXKoAbGiZA8AE1CI53rfHMJakvzLFoGEYhhaRvXyNy//GNfam+kawZ4TlKBYmcRRDelqCDpspHkIoYBm9TFeYIEmFHNPl68gOkqoQH3TViVmCrw57RXn+UH9f17z1e/h1jbKApAu/APYeHeF5f3kNMKOxAmxqj3W9+ERgy2aKMgStfy8yEOWGpq5O5gOcFLm9Eiu/0OX3isb3jOa0l4AIbVtXCM9cubi/igDRBAKyy7UfYxoFKn2qk5AAEWToamj7RWuK7ZnhJmC8ttG10L1bez7XeIGjaW6pylbIKEt+Dmgm5w8tvi0eaONhlHg+e/uTwjlz7s5bn4qD/A5dlNFJt5aO1pnho249GqXfoiO84zFo1u/Uz3kCqZZrkHugZXnuCnT9a+x10578abKUyB59lpXoZPBcHfUE0j0Z662vxzhCtS9F2QGa7m4gmUx052eYz4+ubxxnqFD5xX50E+ax8AZ+fR1VH9VLN44crmxdTyiQbz+5+Q/w6wH6cX64fd09Pxwfv87/6F2z4dX8fl9g8=);lineShape=1;strokeColor=default;fontFamily=Architects Daughter;fontSource=https%3A%2F%2Ffonts.googleapis.com%2Fcss%3Ffamily%3DArchitects%2BDaughter;" vertex="1" parent="1">
          <mxGeometry x="595.6289594192313" y="480.6773512751802" width="31.265114375251507" height="29.990857982758097" as="geometry" />
        </mxCell>
        <mxCell id="hyhj-3s_qtI0DntbfZ-J-74" value="" style="shape=stencil(lVfLctswDPwaXTEkwAd4TtP/yEyc2lPXzjhOH39fqBopImztNDdZ5krE7mIJDfLwtn963Q0c3q6X8/fdr8PzdT/Il4H5cNrvLoerXQ3yOMjDy/my+3Y5v5+ep9+vT+PK8erH+ef4hN8TrmYKOqI4/JnuRLtT/935OgGOh9MKUIQk94BCItuAVKj0AA5UyzZACnHsAUoRbCkX0tQBRKiFbUBlitIBUqAMtqRK2rOUGgkAtEKtdoBcKbZtQAyBQugQxXgFVTcl6auujRgANJL0RWijlIDUyQvREhXeBnCh2npvfJR1v+w2W2F5RaMCiI1mv54m4wERa/+69ZkqsiuVvoTGlAFJMlO4kKrUQAGJUm8MzdBJlYoTzcwLNIhMlb0tskIJXAJUhZqZyqGnqFbKGVAkFKJ/A3KqtLnEpegwy3ifVKFaPUuKQyn1NWiBNjJAc4BGCnRI+aZ5ZG7Y+4Do+9lCRMCWxIzcC2etUEDR3HzsWbMpEI55PgpWgBaBl/JNDZacQLil2Vc1F0BSphI8qQU5iYoTwYwEmkF8zpstUPcvCi3rhSJYHwOpM2qAp6cdrtozZL2TUHfKHG/r7gQUfRpgznYTQE2w/7PtuAeUijP45lSwRzAASKLW65YjMUpJ9bFqEZKAMSx0+x2NrwRC35zmZl2UwmWmfDVVRdTLPHfuIsJs3a108QXAIcwIl94VAUZFDcTJrQ9gP1X8qIAHBfMkV7ceHZvWVi7gI2xM61t2UyoxGivy3IUrPgE/liPaJ5E9AOir1SdLnQneWu+OzAbHeNuPO5PHaALRrsm/wCYNqEC8sbTA42kMNidZglP5p79d/gNgFx+fSi+H43H60lr/7z+t7Nb0WSaPfwE=);lineShape=1;strokeColor=default;fontFamily=Architects Daughter;fontSource=https%3A%2F%2Ffonts.googleapis.com%2Fcss%3Ffamily%3DArchitects%2BDaughter;" vertex="1" parent="1">
          <mxGeometry x="447.31828078273475" y="490.2836018338794" width="11.673229301481479" height="22.652631775664304" as="geometry" />
        </mxCell>
        <mxCell id="hyhj-3s_qtI0DntbfZ-J-75" value="" style="shape=stencil(7VnLjhw3DPyauRJ6Szw7zn8Y8Do78HrXWG/8+PtUZ6DJkOouZ4EgyCG3eXS1RLJYLHWf8psv9+8+351S+PLy/PTx7tv5/cv9Kf9ySun8eH/3fH7Bp1N+e8pvPjw93/32/PT74/vL98/vtiu3T5+evm53+H7BxSGpb6gUflx+qUN6/vOXXy+Ah/PjDSDF+fcEtCraCaDJsCv0LEWPAblISRYwpJRjQElSqwVECYMAuozqgx4khhokRwMoTVqigGqzhKg6CRr3G8UAUpUUSZaGtGZXCFIqAUQZwQIQA1kBGyi2cCVLbceAqBIdl5IMskKs0ocF6MzbPqBItIVrURopXEySLJdanpvcBwSJwQOUkK+L5tdcX2dGbjdEkppl6BIxKTMCbj6lrNvQKXb/FUwkzA7L/TMldpBg87m1BilA8HqEZs0kXuzf9k0pksn+kR9LuRJnI+3fH5y3DMpKC4YKB1th9FkiEecswYa8KSDpghImA66ATHNaxpTDG0AOhKTNdwEAkWwJJHYrJOgToQUUOtosbXJD6oYZ4EQeetfIlgZCtJ2DvCXSmWP4uVPjbL4DrVjI3Zt0QlZV3/0j0j3pmPJ2BSBNRFK1zbRfAYP2sxYJFqDX0uwD4mTCFZBmDx7l1QOiVLLCFqJN68BYIIVAqZ3KjzZn1z4AhbVbGkkKcQwAZCt74GNg7MMKtiHgen4SQ3aTSjm/q7cYrVEVQB2c9DV4El7ppB6QiPSBS8mKMbwhkz6w1U/DTn0V+qGvVo+toN5X9Z9sSUVd4VQ6C1q9JxnXltoH9KnuV0CnI1SXiaKBznQ0ZLRBK1cy9FdMC4AIGfrL2QBsKbMGyv4UMHil0ZDRCVmeLXXUccVmqXMz+WpAT6KuH1BKQg10cLeAWqeO7M/d4dW7Ia1ssoOt0QMS8w5xlukGEElacWzwK0Q62eGwvEfP0+YfOay4yExl7sR7jZboPNk/ZhDu/TvHjOUY8A8fM9YN/X/M+M8eMzDM7f1zpfkHgdQGAIpk1gTD2+E4qKXHltRSCGsyxc6QR1sz7hZgx90cvBbx8CHMcj2hBMTUc4iWGKrjLNuWIZJSqH90hx6VQDK0jQvHujAn9T4Abt7SoiYqjYghLk/naAxhGYKV2k5MMGcKNyPKHrZVb6jgZwZZAcdltep7c9Dap+pqX3RapqMZ5UaIZjrUMEJy8FEn1p/RH+pxNKwE0Jcxy0Poi9Xu9Hok1T3XKtMZH13viJSkkRp0/4R0YxY7FS4DYdATmHoBro3uH2KVFu/FAkDFuhshPEOrbwGAroC/hwco0+zmSYQYOttSX4Lu9Jj66sf/fwOAD3+9bfhwfni4vKy4/d+/ncBPlzcb+e0f);lineShape=1;strokeColor=default;fontFamily=Architects Daughter;fontSource=https%3A%2F%2Ffonts.googleapis.com%2Fcss%3Ffamily%3DArchitects%2BDaughter;" vertex="1" parent="1">
          <mxGeometry x="459.3592543440932" y="492.07004764576095" width="27.812318857853096" height="18.679033829007675" as="geometry" />
        </mxCell>
        <mxCell id="hyhj-3s_qtI0DntbfZ-J-76" value="" style="shape=stencil(lVdJcttADHyNrqgBZj87zj9cZTlSRZFcspzl9wHDIiOAZCe+URR6Bkt3z3AXH94OT6/7nYS32/Xydf/j+Hw77OKnncjxfNhfjzd92sXHXXx4uVz3X66X9/Pz+Pv1aYgcnr5dvg8r/Bxx3KimASXh1/hGErX8583nEXA6nu8AEil1A4iJet8GxEBsd0iNYgKATL0aQO5UZBuQIvVoAKVTBTVk3cGmVJkKbwNKImGfUi0A0CkUW3Sm3LYBVSjbGqRNS6wDIgUL4DS1YQvQHCBQqACgXcq2aFhz7cTNlkAJzLlFHx8ogXxa9S0KUwtW4ztTtTxikgDiMyU7s7lj6/HNk6JSAazrMynnfIQEFKyAZqXGddpyK6PixMyQE70Q2xJ0xh3MuMvE4juaNgBojZLYpgao/pa8chQgAKC0czTVlDLiaVlITbUJiFETcfFtjWDSgzZtl1j3RFJTU7VzYIZcUm2y5x4DZlQ1k+C4nUB8U+1Y6gXIi1YmK7nTJtKaSj24+AKG3BNFSyOhhtavnnblX1KLbmKaEPBrDsF3lDOk3ccRQxE2qRSoIv1HP7VcqIEqVJ1i21Rn01znUaVgAcMS4PQvdfL0CaCeE8EOWTyz7xq3fl9Q27Xy1MZFcF9QLhS7hR4tDfSVO4l1jMFDAF1VvdVOrgR4wcgUF9cFZHpMwRq9XsKQDc8WOscLbNGCqqJXMHCQqKc7Sy3QL9jzTm+dCcTLdAGc4/HRqau5fMJk+us0nYQ4k67D/rTFyaz3aLC+EkLaAoD8JfqDVjNKCJCpVF8y3GFhkUOXgc4+/KnwHwB9+Ptl8nI8ncYPm/v//ZeMvhq/guLjbw==);lineShape=1;strokeColor=default;fontFamily=Architects Daughter;fontSource=https%3A%2F%2Ffonts.googleapis.com%2Fcss%3Ffamily%3DArchitects%2BDaughter;" vertex="1" parent="1">
          <mxGeometry x="486.84509664458824" y="492.914755846901" width="17.745527171512368" height="15.693860832634709" as="geometry" />
        </mxCell>
        <mxCell id="hyhj-3s_qtI0DntbfZ-J-77" value="" style="shape=stencil(lVjbUttQDPyavGrOTefyTOl/MEMomVLCBOjl77tu5gRLSXbom2NnbUm7Wsne5JvXx7uX7SaF17fD/vv21+7+7XGTv2xS2j0/bg+7Nxxt8u0m3zzsD9tvh/378/3x98vd8s/l6Mf+53KH30dcjpLLgkrhz/FMGdLCvzNfj4Cn3fMKUIKUaAFNwrgO0CTLtTUgScgEMESzAeQslTyhVgk2h1REOwF0qcEAIm4RaUjV5pCy5ESqVKV0CxiSynVALtLVJt3mmcuALKF6HiopK+4XmgGoyiBJlyzFhlSL5EqqpNJt0u3E/TUeXNJNpRLiRpJspdGDVFKlUWfEJ0CSQXgYYwrhBECVSA4xBAlWTB1UkzLhEckmgbQYc0iiDQtAmRot07ByHX2SfxHQ++zIEwBNSHLop4hPHfRRh4uI1iQN/4hMmIB21Op1NMo11DSqL1MkIcE3uvWNEectrgGKBaBwSupamzTbEVBTIoAWpLknpOm3lwF6pr4wC32ZuSDRaqMNiYQHRKzVA5iYBnJQHxKbEAtN6pOmgC7ZJQ37ZCEN6c4GukTWcmP60EoaygBg2qm1SCO+gctu8OIWzF3hKk4aCDISs0RNnH8DMAhg4fXMBZgdt+IH78IMUysAegYgVcJIyc7JeAOVOLeXFXFsBmEuR6cllUKeEDGXrZHB2jqRRgxefBU8EF9CzlZ7FUkRZUQpNiDN0khAZwMLk57VNM9WWe1jbDggO/t/rGORGHdKnoIIzyEFwvOTHdKoMeNsWccsQOk2hn3PTdw4c7o23NQ2Ah+G0GR0G6soNzznLjHRkmJl6I4D7AR8Zchu/4zSSSv37Oc51noljYber06mQZTN8yLJhqR8S8ebi1qzqIE2Dt5loi1rTXQBwA6tVkcVSzJJGmu9M+0FQCw1J+/BAETuX056yCETplObEa/she2r6BUnPrQHm7Zo9+a6rVODAcBpCUwzh1ne72yVtFAPRg7FAaBf0qGpehPTOKm8DOjzveKT8v7vN+9PAHDw8aL/sHt6On4nWF/3HwZw6vhRId/+BQ==);lineShape=1;strokeColor=default;fontFamily=Architects Daughter;fontSource=https%3A%2F%2Ffonts.googleapis.com%2Fcss%3Ffamily%3DArchitects%2BDaughter;" vertex="1" parent="1">
          <mxGeometry x="504.8438287306533" y="488.1138426559912" width="14.979921486574312" height="23.94246934277653" as="geometry" />
        </mxCell>
        <mxCell id="hyhj-3s_qtI0DntbfZ-J-78" value="" style="shape=stencil(lVbZctswDPwavWJIggf4nKb/kZk4taaunXHc6+8LVaPUgKTN9I2WucS1C2Dgh7fj0+thSOHtdr18Pfwcn2/HgT8NKY3n4+E63vQ08OPADy+X6+HL9fL9/Dz/fn2abk6nb5cf0wu/Zhx34jKhUvg9fxEK/PfD5/n+aTzf3c+JMpv7sVBP+4ASKVpAqpQBoCZK0QC4UZV9QFOXugGUQKHtAyQQZwNQmwG41Bt1G4MwFWAhBvUgWESjFICJTsX61AP1AgCVqrXQ81KabUD0adKwEsirZGrOpb6UZrsQjYLl0l0etmutD65MFOCTFiomH0TvgH5KNmehECNAoiYWkCCblOCuciLEFVoQJ7lMFZRaYyjVAuLC4F0J2VI3oQZi0Dq4LGktPyh1si61SgIkpCE6CekTFcSgdK3OJaUGKJwKotm+IdoYQB36+3vvAG1lGNAtNaQvNvf6hjjyMTHSKFN2oq5Q1NpVXHftQhVkSZNYm1ecAGq0SBJWAMDWmonbyiVQ6SKrGOoylLYBTK34tCaQpW0AcInFB92YBFCDlWrWgmoQsTXFZWougKwqB0FHbTMWwBlOau2Ult1RgwIeBYq+eVMH5F5POKrAneivV9iGmYKVWsYdj6IVWoJjZCXkSAk0r5i9LAMkaOx+SuExqNGKuPtoWdBUr/xBu8LEzuTSE0F6uFCz7/PSyPbkEuw0KCSAC/+7dH58Xw//NtyX8XSaF+T7//1GrJ/mbZof/wA=);lineShape=1;strokeColor=default;fontFamily=Architects Daughter;fontSource=https%3A%2F%2Ffonts.googleapis.com%2Fcss%3Ffamily%3DArchitects%2BDaughter;" vertex="1" parent="1">
          <mxGeometry x="339.62236812583683" y="489.4162017418448" width="9.000158466359427" height="18.835304083810662" as="geometry" />
        </mxCell>
        <mxCell id="hyhj-3s_qtI0DntbfZ-J-79" value="" style="shape=stencil(rVdJchsxDHyNrigS4Iaz4/zDVZYjVRzLJSvb74OJiiMRM+rokNtsPSSA7ga4kYeP3dP7dsPh43Q8fN3+3D+fdhv5tGHev+22x/3JrjbyuJGHl8Nx++V4+P72fL5/f5q+nK6+HX5Mf/h1xuVAmicUh9/nJ9yo1r9PPp8Br/u3K0CKpDwClLjcBtj/QhkAEkgYADLxuKXUiPU2QJiKDoASqYEtpUxJRkCglm8DsuVEPSC324Bqr9MAyEwKYqhCPG4pJyqgDqWRxhEQSRIAZCojIBUSAQDpG5gBgSLIkgF4zJIIJVCHkig7LhVSBKjEDhBhDDVSHIOOFcZQs690TNRAHVqgWjygAnq3TNltqVAFMTSlPFKDA6SGMqXo0xoBNVQ6++fCMWVQBwM4xQk2AY3eZkyDGdShNWqO3pZoBEie3iYgpIeq3edmQO7Wtg4wIrAHwBVCz8mVCRRE70LZKa5hxaX+egYwScASHX1JjPAYoCPA7D7gGOIYAwsFZGTaNzDroZEgiSa/QjQ/BzFYpaNbIXVJrXPJgm5+hfY/ATEECuOesvSw1hVUqI2Sm1oGaEGt+MqZkRTUgowJo4K0QclNXdFFfQnrVuOVMWrFezIf0uIBiH5m72EUqbkhI1X3DjWndWbL+gJ9drmaBAIow6LOSWB7yJ37V/JR8P8YvVEqlNtyHPtHyRbzXoQFWA6UERq90V5c/+y8Xf/exhjnYL3Fr39f/feJFOQnq58+ax8W1+3LhlkvAjxWhb7+DJA+Bt0LMC9Anr3cksLhcxkzc3ebO5N64e2dVbO0MirbghZGXAE6mHiXPAAdZO44+djF5dz0sn99PR+7rt/7c5Y9Op/R5PEP);lineShape=1;strokeColor=default;fontFamily=Architects Daughter;fontSource=https%3A%2F%2Ffonts.googleapis.com%2Fcss%3Ffamily%3DArchitects%2BDaughter;" vertex="1" parent="1">
          <mxGeometry x="336.96093133623367" y="504.5379967883953" width="16.564753992010083" height="12.283032864712732" as="geometry" />
        </mxCell>
        <mxCell id="hyhj-3s_qtI0DntbfZ-J-80" value="" style="shape=stencil(lVjLbttADPwaX4ld7os8p+l/BIhTG3XjwEn6+PtSNVbRUvIEvTmKx8shh0Oudunu9fDwst9xeH27nL/vfx0f3w679GXHfHw+7C/HN/u0S/e7dPd0vuy/Xc7vz4/Xv18epm9On36cf06/8PuKi0KRJxSHP9cnRSjkf0++XgGn4/MCwEySRkAiDgAgxCMgFwoI0KjGAZAyRQGAQqkNAM6kgENU0hEQ7cwETtAewAxQyhUALCcupErCABCIHWkDNACIvUxzWpWSwizVMhZOIemUKIUBUIUSSGuOxKOWGpOCwply0ki6WZAgS9V+b+TQGmVAuqUutQVAym2ApF6mGZBJwAlSSesISJRB4TRQWgEiOEET1eZDCiCtWqmM0miVAiCtQtWFJJC0qjcB4S6WWwAd6yCFFIjPQpKx4wTL20g7gFpI6AQzlTEke5IRIHjSWiiDOohpkz0gAdeQ7BvIQgpIfJHKKA2NJBH0g1IbpSHSn2wDpDvponAMWtROcHZvQVYgDQlU1IuPUVq5a3PhGgVlqXQnXXQcMmOTmjcya1HUQNwpLgAVVFpXZmwcGMlbegcvjQzZjFKpvg4RkI4heK80PTaAsCPSSkyocto8a5MrbLnS5T8DrHJArgbwTZ16127L1QrhJvtHHrZnUF71nEL5FcviOOWsmEhNOfuxaOaGVqxk8suedUD7DHvWH161LQ6baW5SCwTIasgFOFFWg92WkwYor7SaK1xmzGTG76cIV0Qr8sjXFmUF8UTuM3wmDC3G9kfXChHaqiW0jQSwSqft0S1vfefd5svUXDxGADjYtMSPGZo2XDB68mxwyw33kzYYRZoF3gNy8DUorev8Vt+4iV5nVreuJjKSrgpXAMuJ42B9UABpE56rQ/tEGNbp7AHwahJ9HaYTQEhrqRoHNNGtVTj4LBUQkknN3WUqrnSs/rZU5513G1CojXUwG0d7zwQYXb4yNDALKTpAhFt6rP4SapaHhuH2Vf2/AQNp+/DxZuDpeDpdXyws/+/fJNij61uIdP8X);lineShape=1;strokeColor=default;fontFamily=Architects Daughter;fontSource=https%3A%2F%2Ffonts.googleapis.com%2Fcss%3Ffamily%3DArchitects%2BDaughter;" vertex="1" parent="1">
          <mxGeometry x="351.9728028131692" y="492.22102478798456" width="23.631485293687728" height="22.238885796402975" as="geometry" />
        </mxCell>
        <mxCell id="hyhj-3s_qtI0DntbfZ-J-81" value="" style="shape=stencil(lVfLbttADPwaXQnui7s8p+l/BIhTG3XjwHH6+PtSFdb2UvYUuckWZ0kOh+RqSg/v26e3zRT5/XQ8fN/82j2ftlP6MsW4e91ujruTPU3pcUoPL4fj5tvx8PH6vPx+e5ot56cfh5/zCb8XXIwkbUZF/rP8k6ikf398Xez3u9dre6GWBvtGAuxTIebBPghxvg/ImUIcADGTNgBQyjpmwFSAh5Kp5REglOJ9gDDFEZCNtQoAhUodAUpF7wMqUxuTLkJSAMBIlAEgiRIANKY6smQ+I0i6FQphBJhP4EEjtTIqw4gGSQdmrw1NnbjbLpTqKD4tlAUAmk9CK8zazktjIewIVAgNJKM2LEgJgNfaIz43xIWH24jUQ75yUUFHVKUkPgkFvFplo3qaoPzyiqaCPaTeMGeA9TlI2jxkp41IEQwayyE7bTAUk7FURpaaUgS0Wh1c5VqjggpXqbIHJKANE1OrHlDBKDPWS/A5VMCSCcGNMvMZQNIXqV3VQVFDaBfCVaUbyqH5yaQ2+1BTyw15w6a2iFc9Codlo9Y8QEEONukkrABourLfEHNIqB9sbrFPOoCQ6mrLGW8F0Got6odrhlr6NEAsYrchrPZojwa/IOp52d9e7UJ19GBBohYtNlTGOkglRreNlYf5dgBCyoHiCCi2qYEHuzG1Ud6zT+AhrbSUbdkD8UX2gywqNcBSCKRjpe2IAgZZ9oWeTwApsB/FAuNZ3RtsDAJG2V8CbHsBmTLpeHqCjRZ735656VezO9Q4Odj8BebSb9fdnGEDqF/kDLdsiP31xR5dRUL2C4r7WLptb5ed4uwFXQnVb8xAGXFvr5sjP4N4Pv218197e7h8Wr3s9vvly+z6vf8Us7+Wz7j0+Bc=);lineShape=1;strokeColor=default;fontFamily=Architects Daughter;fontSource=https%3A%2F%2Ffonts.googleapis.com%2Fcss%3Ffamily%3DArchitects%2BDaughter;" vertex="1" parent="1">
          <mxGeometry x="369.2730372877061" y="485.4689268315674" width="14.861725750042023" height="33.518499679041994" as="geometry" />
        </mxCell>
        <mxCell id="hyhj-3s_qtI0DntbfZ-J-82" value="" style="shape=stencil(lVjLctswDPwaXzF8Ezyn7X9kJk7jaRpnkvT1913VQ9eA5G1zsyWtSGB3AVC7fPP6cPu836Xw+vZy/LL/cbh7e9jlD7uUDk8P+5fDG37t8sddvrk/vuw/vxy/Pd2d/j/fLk8uv74evy9v+HnC5SwaFlQKv05XNErTP1c+nQCPh6cLQAlSigH0LiERgMoYFhAkheuAer49AS1JrWSFIdoMAK8YZAUAWjaAEqXzGHo0gFwkFAKoEuwKqUgiac1jbmACYhWNBKASql0hSyZBg+mgNoYoyraErFumS55rbgOQk255SFQaiCHZLTWoa5C0Fuk26NZlkBgqQrQ8dPCQrwMgtWRjUGiJAHqW6OQ9pHQC6DPrZ4DOvG0CFCtYeeMVzA+qcwMXgEFWGFlS9TEkwsOA5VdVIzcCGJItD4iKbSmGsFqiiRLLDdQZK1eFzVkQzUc9Ei1My23r0VEkEo9q92IalaoPWRzJAwpTX5Oe/ZY6iaGnVdCQF/Fo0yn/MyBQHuDI6KhWmiUAgiMOWWIAleY8mmZT2g4aVcAGDVOzLSGtyZUNpSss8l9ZrpG06oo4ADphekRf+rClziyH/jF80I3JW/2WlNd7mHo4HirtKAAUW/r0HzF0ybbvIg2FEAcxNxs0rrBa+W4A6n22al2iIsTV4cV3Udu2u1yb08t5iTbb2LXGm22HgEeZqVOdo8IF1Y0QEduUzll9dQ6O2/qWaLPUKm2jGBQsDTXT51fdoSQ68gVvaOQsEpqTfx7zWyT7iUGq9ULENESUmlAx3BhAGyKmMTdRom6zOb1Itc9z0WHwaW4Anf102weY1CwDEW9ggCLFihQ7YkM3ivBwE26f7XEbsJ7SO23oS1G3qoP1KgdES1qtvFp075uGWYsYDbbyRovTStu8DR80NplZPVqdx5QPJXXdPcdswFfPY26K4UwXlHlXhOPsFNfE7at25Ce+6IfuBUB4wHksJg9o7PAD5axWYIZDASrRZ4mdKVEB3BER3VNJWnG+c5bGQFo4IK4aOnMcAK4IaJlXrsXgG0/iPLz3+8R/APDj7+eQ+8Pj4+lryuV9//kEl06fXvLH3w==);lineShape=1;strokeColor=default;fontFamily=Architects Daughter;fontSource=https%3A%2F%2Ffonts.googleapis.com%2Fcss%3Ffamily%3DArchitects%2BDaughter;" vertex="1" parent="1">
          <mxGeometry x="381.3623796786983" y="489.7845984388755" width="15.03152175829382" height="27.797946481528015" as="geometry" />
        </mxCell>
        <mxCell id="hyhj-3s_qtI0DntbfZ-J-83" value="" style="shape=stencil(lVfLctswDPwaXTEEXyDPafofmYlTa+raGcdtk78vVJWyCVnbyU2WsSIeCyw4hIe3/dPrbvDu7XI+fd/9Hp8v+yF8Gbwfj/vdebzo0xAeh/Dwcjrvvp1PP4/P8+/Xp8lyevpx+jV94X3GcaIkE8q7j/lNoBT/vvg62x/G4619oVI7+0KSt+31c9Lb64mhAkCl7DqA9xSARyFRNBE4cgAQHSXuAYUycCkmG0OsxACQHJXUAVIlSQCgMZQOkCv5AgCapT5oEZp+bgGy1tn3dYvkwzZAMnmxgH95uwsomdgAtHCAGmUVgwKcbANqIGYLyMClqi6FHhCoOgAoFE2WEhWQ1qp1jT2gtDRsAWoPqI4EuVTJ9UFPaQD0rkKuJ19N5BFAiZB7QCYB5FOPa58lPTODGIpQdCsA4lIkt3KpIACTXwcNWlSqpbem1YMYpFAwdXBw8ikgmklZcMfVlvVb8oE6TO3SBz3RG1Rav2cB2kDApbKOQc9E1GCqKwCa3lomrjYGpA/KHMk2Swxi0AayPS1wLrFT/ejpqqOqgPE9HWGaWqNGAGlsXgA6XFHU6U6Pwrwuo/Sm5SKalZ8FiGujdFH2a+LuaxCv0qQSACqRmJKJWmsNxrEqtRFerVwE5Ii8UgjfMn1/21hkdhHeCIU3+LZPLdKuAJBXL62wy/KgHQHSqiuWUYgY4SjTHS6bBUjzhpa+0Mi57GSlLSz35wblPgTPUCCC3fn0xAhU1LWpdV1CkSS6NrOWErSFbsu890Y3VhCsa/NqST/sArYE8iSAoZ5i3wIMJ7ae3X/dQSnXugdjDiXKzl7c8CpobMwZMJ/Z3kV0UwdTVEnig8kNahSOKxpTAK376bvRf+314XoRexkPh/ked/u/vbjpq/nSFx7/AA==);lineShape=1;strokeColor=default;fontFamily=Architects Daughter;fontSource=https%3A%2F%2Ffonts.googleapis.com%2Fcss%3Ffamily%3DArchitects%2BDaughter;" vertex="1" parent="1">
          <mxGeometry x="393.2213194930937" y="482.21743157546234" width="21.95135250729363" height="30.532095329611003" as="geometry" />
        </mxCell>
        <mxCell id="hyhj-3s_qtI0DntbfZ-J-84" value="" style="shape=stencil(lVbLbhsxDPyavRIUqQd1TtP/CBCnXtS1A8d9/X2pLrQ15TXT3GSZsxI5M6QmfnjbP73uJsK3y/n0dfdzfr7sJ/40Ec3H/e48X3Q18ePEDy+n8+7L+fT9+Lz8fn1qkW317fSjfeHXgktQcgMR/l42coGa/u58XuIP8/EqPjBktgAE4fsAyiDVAGJ2T4gEbE/gCEnuA1IERgOg6J6QNWl7paA7DkAYqq0SAnnxAjF9IL4SlGAzgBid+AwklgTI6MQLiK1QoP6FbZYRAQeEdB63j6i9gmsKWlMvBwG0JDBBCA4gQbBJc+lK2QaEUUhRpVoc2lSY0QJUi04OojQVCwiQnCoVFYYtK0unfhugSdsrsWrRYa4woAWQGpocgKZIFhAgOGJtJ1imgxrQu1Lq3+sAcXlrRbI30p7j1KixYJWErvIazaOb0XOP6mhIGKKTbxOqvU8CdBhQJ4TBa++0izo27ZB7V/5fO2tN3RxkbJGM3a93W5K1Aq+j5V7Py8MJFapHs8pisDO5V2qAGzt7ABVesnVN7FpBBwnbvp31BIeIRKO0SwB0ktYWl21ZBfvO9riNkG0OKt/s8KDSGXpY9RtGuBmGqkdvWoUANIxb9B0n3e9XJyQn6QxoJ0OzlBPPIFYYallvuFH37xpPII4utP9YpUoFciqEY8+WBORwduNm8Vs29tfBqrrSx8o2YyCDSrVbOPfhzs4aj+7c/Oij8/14Xfx74b7Mh8PyQL7+f3wR69bymubHPw==);lineShape=1;strokeColor=default;fontFamily=Architects Daughter;fontSource=https%3A%2F%2Ffonts.googleapis.com%2Fcss%3Ffamily%3DArchitects%2BDaughter;" vertex="1" parent="1">
          <mxGeometry x="395.6488098321013" y="495.44426499279916" width="15.754100575553093" height="10.316374311982509" as="geometry" />
        </mxCell>
        <mxCell id="hyhj-3s_qtI0DntbfZ-J-85" value="" style="shape=stencil(lVfZctswDPwav2J4gCT4nKb/kZk4taeunXGcHn9fqCoVEZLWkzdZ5oo4FsvlLj68HZ5e97vg3m7Xy/f9r+Pz7bCLX3YhHM+H/fV406ddfNzFh5fLdf/tenk/P4+/X5+GlcPTj8vP4Qu/R1wmcQMouD/ji1gpyb83X8f1p+N5tt57Et8DmGoCAKHYA0Ih77YBIVKMHcBX8iAk/Z4FeAq8DYiZXB+SL5QyAHiquc8hkQdJDwBnqwRDCpRSB+BAApLWHGIfUoqt0OuAShI6QNZWlm0Aa+P6kIqjBHZI1Xa6ZCpxGyCJnHQAcRQBNaqzO4gnDxpX2dJbAlWQdJVFSIlSAIBq50EEcmkA9CFVT+VOSH2nP7LaSvr/9yZAaa3cKmswgArpPTTOTJxz5EBMpVL2dgsBdS1MycQklAGZlJzcx1Rzm6lVQC6UuQdEWNeciXtuaOEy6JzuYMlUiCsAVDvUwlCNS2xSOuN3AOwrxQqTjlwBAImWGwpASqb0z2GxA+J3JA6LHBCgNHLOqpTRQNTFDgUq2YzNs1YXtIVYdR3IBOiq5HQGkBvj1wGTWs8HAg1pbgHMRw7JsSfuk7431QPCfwqRcuPzPG0AiGIJq4Wo2A2kfqwHBQc7qEEJPaBoMwHD1V14A3BYmuyQZiU4WL8YOT3aCwjItXAn78BN2jbWu6U5ARVy9gAKDIk0qeLECvUBQOu52bupxa3A6/XX9f3ohKaz64wQWx/MUXVeOZv1GYSfmFyvR0o4oPLaTVPPwSODhLlac6i2HYm2Do0Z/ZhgCtG1Bs3sJxJtTdH1PWZlOeDEktQs0K8Gb6uqZUAs1SKmaAEF3UwSSbaACnLwetrWxQ4IoMRZAJBflWYPZkUKyMMs2lYat9apZx0MJ3iG8KJCDO9u3O4sMxoh95ysVrOD4v7Z2+r99frwcTV+OZ5O4816/r+9Suur8RoeH/8C);lineShape=1;strokeColor=default;fontFamily=Architects Daughter;fontSource=https%3A%2F%2Ffonts.googleapis.com%2Fcss%3Ffamily%3DArchitects%2BDaughter;" vertex="1" parent="1">
          <mxGeometry x="410.1935595860116" y="484.9064590886653" width="15.102377081338272" height="25.58803990992674" as="geometry" />
        </mxCell>
      </root>
    </mxGraphModel>
  </diagram>
</mxfile>
